<svg xmlns="http://www.w3.org/2000/svg" xmlns:xlink="http://www.w3.org/1999/xlink" xmlns:lucid="lucid" width="2520" height="3275.09"><g transform="translate(0 0)" lucid:page-tab-id="0_0"><path d="M0 0h3456v3952H0z" fill="#fff"/><path d="M440.93 2504a6 6 0 0 1 6-6h588a6 6 0 0 1 6 6v550a6 6 0 0 1-6 6h-588a6 6 0 0 1-6-6z" stroke="#3a414a" fill="#fcfcca"/><use xlink:href="#a" transform="matrix(1,0,0,1,445.92668241788977,2502.999999999999) translate(0 17.77777777777778)"/><use xlink:href="#b" transform="matrix(1,0,0,1,445.92668241788977,2502.999999999999) translate(65.37037037037037 17.77777777777778)"/><use xlink:href="#c" transform="matrix(1,0,0,1,445.92668241788977,2502.999999999999) translate(84.50617283950616 17.77777777777778)"/><path d="M1120 746a6 6 0 0 1 6-6h1368a6 6 0 0 1 6 6v2028a6 6 0 0 1-6 6H1126a6 6 0 0 1-6-6z" stroke="#3a414a" fill="#edf5ff"/><use xlink:href="#d" transform="matrix(1,0,0,1,1125,744.9999999999998) translate(0 17.77777777777778)"/><path d="M440 1407.5a6 6 0 0 1 6-6h538a6 6 0 0 1 6 6v268a6 6 0 0 1-6 6H446a6 6 0 0 1-6-6z" stroke="#3a414a" fill="#e3fae3"/><use xlink:href="#e" transform="matrix(1,0,0,1,444.9999999999999,1406.5) translate(0 17.77777777777778)"/><path d="M560 286a6 6 0 0 1 6-6h308a6 6 0 0 1 6 6v108a6 6 0 0 1-6 6H566a6 6 0 0 1-6-6z" stroke="#3a414a" fill="#fff"/><path d="M592 280v120m256-120v120" stroke="#3a414a" fill="none"/><use xlink:href="#f" transform="matrix(1,0,0,1,605.0000000000001,285) translate(0 17.77777777777778)"/><path d="M580.93 2871.83a6 6 0 0 1 6-6h308a6 6 0 0 1 6 6v108a6 6 0 0 1-6 6h-308a6 6 0 0 1-6-6z" stroke="#3a414a" fill="#fff"/><path d="M612.93 2865.83v120m256-120v120" stroke="#3a414a" fill="none"/><use xlink:href="#g" transform="matrix(1,0,0,1,625.9266824178894,2870.8333333333326) translate(0 17.77777777777778)"/><path d="M620.93 2911.83a6 6 0 0 1 6-6h228a6 6 0 0 1 6 6v48a6 6 0 0 1-6 6h-228a6 6 0 0 1-6-6z" stroke="#000" stroke-opacity="0" fill="#fff" fill-opacity="0"/><use xlink:href="#h" transform="matrix(1,0,0,1,625.9266824178894,2910.8333333333326) translate(0 17.77777777777778)"/><use xlink:href="#i" transform="matrix(1,0,0,1,625.9266824178894,2910.8333333333326) translate(61.666666666666664 17.77777777777778)"/><use xlink:href="#j" transform="matrix(1,0,0,1,625.9266824178894,2910.8333333333326) translate(75.24691358024691 17.77777777777778)"/><use xlink:href="#i" transform="matrix(1,0,0,1,625.9266824178894,2910.8333333333326) translate(98.20987654320987 17.77777777777778)"/><use xlink:href="#k" transform="matrix(1,0,0,1,625.9266824178894,2910.8333333333326) translate(111.79012345679013 17.77777777777778)"/><use xlink:href="#l" transform="matrix(1,0,0,1,625.9266824178894,2910.8333333333326) translate(180.8641975308642 17.77777777777778)"/><use xlink:href="#m" transform="matrix(1,0,0,1,625.9266824178894,2910.8333333333326) translate(199.38271604938274 17.77777777777778)"/><use xlink:href="#n" transform="matrix(1,0,0,1,625.9266824178894,2910.8333333333326) translate(212.962962962963 17.77777777777778)"/><path d="M20 833.67a6 6 0 0 1 6-6h308a6 6 0 0 1 6 6v108a6 6 0 0 1-6 6H26a6 6 0 0 1-6-6z" stroke="#3a414a" fill="#fff"/><path d="M52 827.67v120m256-120v120" stroke="#3a414a" fill="none"/><use xlink:href="#o" transform="matrix(1,0,0,1,65,832.6666667361469) translate(0 17.77777777777778)"/><path d="M60 873.67a6 6 0 0 1 6-6h228a6 6 0 0 1 6 6v48a6 6 0 0 1-6 6H66a6 6 0 0 1-6-6z" stroke="#000" stroke-opacity="0" fill="#fff" fill-opacity="0"/><use xlink:href="#p" transform="matrix(1,0,0,1,65,872.6666667361469) translate(0 17.77777777777778)"/><use xlink:href="#q" transform="matrix(1,0,0,1,65,872.6666667361469) translate(62.901234567901234 17.77777777777778)"/><path d="M560 1475.83a6 6 0 0 1 6-6h308a6 6 0 0 1 6 6v108a6 6 0 0 1-6 6H566a6 6 0 0 1-6-6z" stroke="#3a414a" fill="#fff"/><path d="M592 1469.83v120m256-120v120" stroke="#3a414a" fill="none"/><use xlink:href="#r" transform="matrix(1,0,0,1,605,1474.8333333333333) translate(0 17.77777777777778)"/><path d="M600 1515.83a6 6 0 0 1 6-6h228a6 6 0 0 1 6 6v51.34a6 6 0 0 1-6 6H606a6 6 0 0 1-6-6z" stroke="#000" stroke-opacity="0" fill="#fff" fill-opacity="0"/><use xlink:href="#s" transform="matrix(1,0,0,1,605,1514.8333333333333) translate(0 17.77777777777778)"/><use xlink:href="#i" transform="matrix(1,0,0,1,605,1514.8333333333333) translate(76.48148148148147 17.77777777777778)"/><use xlink:href="#k" transform="matrix(1,0,0,1,605,1514.8333333333333) translate(90.06172839506172 17.77777777777778)"/><use xlink:href="#l" transform="matrix(1,0,0,1,605,1514.8333333333333) translate(159.1358024691358 17.77777777777778)"/><use xlink:href="#t" transform="matrix(1,0,0,1,605,1514.8333333333333) translate(177.65432098765433 17.77777777777778)"/><use xlink:href="#u" transform="matrix(1,0,0,1,605,1514.8333333333333) translate(0 44.44444444444444)"/><use xlink:href="#q" transform="matrix(1,0,0,1,605,1514.8333333333333) translate(69.07407407407406 44.44444444444444)"/><path d="M1644.25 811.5a6 6 0 0 1 6-6h308a6 6 0 0 1 6 6v108a6 6 0 0 1-6 6h-308a6 6 0 0 1-6-6z" stroke="#3a414a" fill="#fff"/><path d="M1676.25 805.5v120m256-120v120" stroke="#3a414a" fill="none"/><use xlink:href="#v" transform="matrix(1,0,0,1,1689.2461343662594,810.5) translate(0 17.77777777777778)"/><path d="M1684.25 851.5a6 6 0 0 1 6-6h228a6 6 0 0 1 6 6v48a6 6 0 0 1-6 6h-228a6 6 0 0 1-6-6z" stroke="#000" stroke-opacity="0" fill="#fff" fill-opacity="0"/><use xlink:href="#h" transform="matrix(1,0,0,1,1689.2461343662594,850.5) translate(0 17.77777777777778)"/><use xlink:href="#i" transform="matrix(1,0,0,1,1689.2461343662594,850.5) translate(61.666666666666664 17.77777777777778)"/><use xlink:href="#w" transform="matrix(1,0,0,1,1689.2461343662594,850.5) translate(75.24691358024691 17.77777777777778)"/><use xlink:href="#l" transform="matrix(1,0,0,1,1689.2461343662594,850.5) translate(176.35802469135803 17.77777777777778)"/><use xlink:href="#n" transform="matrix(1,0,0,1,1689.2461343662594,850.5) translate(194.87654320987656 17.77777777777778)"/><path d="M1212.12 1400.54a6 6 0 0 1 6-6h308a6 6 0 0 1 6 6v108a6 6 0 0 1-6 6h-308a6 6 0 0 1-6-6z" stroke="#3a414a" fill="#fff"/><path d="M1244.12 1394.54v120m256-120v120" stroke="#3a414a" fill="none"/><use xlink:href="#x" transform="matrix(1,0,0,1,1257.1230671831297,1399.5368651424599) translate(0 17.77777777777778)"/><path d="M1252.12 1440.54a6 6 0 0 1 6-6h228a6 6 0 0 1 6 6v48a6 6 0 0 1-6 6h-228a6 6 0 0 1-6-6z" stroke="#000" stroke-opacity="0" fill="#fff" fill-opacity="0"/><use xlink:href="#h" transform="matrix(1,0,0,1,1257.1230671831297,1439.5368651424599) translate(0 17.77777777777778)"/><use xlink:href="#i" transform="matrix(1,0,0,1,1257.1230671831297,1439.5368651424599) translate(61.666666666666664 17.77777777777778)"/><use xlink:href="#y" transform="matrix(1,0,0,1,1257.1230671831297,1439.5368651424599) translate(75.24691358024691 17.77777777777778)"/><use xlink:href="#l" transform="matrix(1,0,0,1,1257.1230671831297,1439.5368651424599) translate(154.25925925925924 17.77777777777778)"/><use xlink:href="#n" transform="matrix(1,0,0,1,1257.1230671831297,1439.5368651424599) translate(172.77777777777777 17.77777777777778)"/><path d="M1212.12 1091.5a6 6 0 0 1 6-6h308a6 6 0 0 1 6 6v108a6 6 0 0 1-6 6h-308a6 6 0 0 1-6-6z" stroke="#3a414a" fill="#fff"/><path d="M1244.12 1085.5v120m256-120v120" stroke="#3a414a" fill="none"/><use xlink:href="#z" transform="matrix(1,0,0,1,1257.1230671831297,1090.5) translate(0 17.77777777777778)"/><path d="M1252.12 1131.5a6 6 0 0 1 6-6h228a6 6 0 0 1 6 6v48a6 6 0 0 1-6 6h-228a6 6 0 0 1-6-6z" stroke="#000" stroke-opacity="0" fill="#fff" fill-opacity="0"/><use xlink:href="#h" transform="matrix(1,0,0,1,1257.1230671831297,1130.5) translate(0 17.77777777777778)"/><use xlink:href="#i" transform="matrix(1,0,0,1,1257.1230671831297,1130.5) translate(61.666666666666664 17.77777777777778)"/><use xlink:href="#A" transform="matrix(1,0,0,1,1257.1230671831297,1130.5) translate(75.24691358024691 17.77777777777778)"/><use xlink:href="#l" transform="matrix(1,0,0,1,1257.1230671831297,1130.5) translate(139.320987654321 17.77777777777778)"/><use xlink:href="#n" transform="matrix(1,0,0,1,1257.1230671831297,1130.5) translate(157.8395061728395 17.77777777777778)"/><path d="M1644.25 1821.83a6 6 0 0 1 6-6h308a6 6 0 0 1 6 6v108a6 6 0 0 1-6 6h-308a6 6 0 0 1-6-6z" stroke="#3a414a" fill="#fff"/><path d="M1676.25 1815.83v120m256-120v120" stroke="#3a414a" fill="none"/><use xlink:href="#B" transform="matrix(1,0,0,1,1689.2461343662596,1820.833333333333) translate(0 17.77777777777778)"/><path d="M1684.25 1861.83a6 6 0 0 1 6-6h228a6 6 0 0 1 6 6v48a6 6 0 0 1-6 6h-228a6 6 0 0 1-6-6z" stroke="#000" stroke-opacity="0" fill="#fff" fill-opacity="0"/><use xlink:href="#h" transform="matrix(1,0,0,1,1689.2461343662596,1860.833333333333) translate(0 17.77777777777778)"/><use xlink:href="#i" transform="matrix(1,0,0,1,1689.2461343662596,1860.833333333333) translate(61.666666666666664 17.77777777777778)"/><use xlink:href="#C" transform="matrix(1,0,0,1,1689.2461343662596,1860.833333333333) translate(75.24691358024691 17.77777777777778)"/><use xlink:href="#l" transform="matrix(1,0,0,1,1689.2461343662596,1860.833333333333) translate(148.02469135802468 17.77777777777778)"/><use xlink:href="#n" transform="matrix(1,0,0,1,1689.2461343662596,1860.833333333333) translate(166.5432098765432 17.77777777777778)"/><path d="M580.93 2551.83a6 6 0 0 1 6-6h308a6 6 0 0 1 6 6v108a6 6 0 0 1-6 6h-308a6 6 0 0 1-6-6z" stroke="#3a414a" fill="#fff"/><path d="M612.93 2545.83v120m256-120v120" stroke="#3a414a" fill="none"/><use xlink:href="#D" transform="matrix(1,0,0,1,625.9266824178894,2550.8333333333326) translate(0 17.77777777777778)"/><path d="M620.93 2591.83a6 6 0 0 1 6-6h228a6 6 0 0 1 6 6v48a6 6 0 0 1-6 6h-228a6 6 0 0 1-6-6z" stroke="#000" stroke-opacity="0" fill="#fff" fill-opacity="0"/><use xlink:href="#h" transform="matrix(1,0,0,1,625.9266824178894,2590.8333333333326) translate(0 17.77777777777778)"/><use xlink:href="#i" transform="matrix(1,0,0,1,625.9266824178894,2590.8333333333326) translate(61.666666666666664 17.77777777777778)"/><use xlink:href="#j" transform="matrix(1,0,0,1,625.9266824178894,2590.8333333333326) translate(75.24691358024691 17.77777777777778)"/><use xlink:href="#i" transform="matrix(1,0,0,1,625.9266824178894,2590.8333333333326) translate(98.20987654320987 17.77777777777778)"/><use xlink:href="#E" transform="matrix(1,0,0,1,625.9266824178894,2590.8333333333326) translate(111.79012345679013 17.77777777777778)"/><use xlink:href="#l" transform="matrix(1,0,0,1,625.9266824178894,2590.8333333333326) translate(172.28395061728395 17.77777777777778)"/><use xlink:href="#m" transform="matrix(1,0,0,1,625.9266824178894,2590.8333333333326) translate(190.80246913580248 17.77777777777778)"/><use xlink:href="#n" transform="matrix(1,0,0,1,625.9266824178894,2590.8333333333326) translate(204.38271604938274 17.77777777777778)"/><path d="M580.93 2711.83a6 6 0 0 1 6-6h308a6 6 0 0 1 6 6v108a6 6 0 0 1-6 6h-308a6 6 0 0 1-6-6z" stroke="#3a414a" fill="#fff"/><path d="M612.93 2705.83v120m256-120v120" stroke="#3a414a" fill="none"/><use xlink:href="#F" transform="matrix(1,0,0,1,625.9266824178897,2710.8333333333326) translate(0 17.77777777777778)"/><path d="M620.93 2751.83a6 6 0 0 1 6-6h228a6 6 0 0 1 6 6v48a6 6 0 0 1-6 6h-228a6 6 0 0 1-6-6z" stroke="#000" stroke-opacity="0" fill="#fff" fill-opacity="0"/><use xlink:href="#h" transform="matrix(1,0,0,1,625.9266824178897,2750.8333333333326) translate(0 17.77777777777778)"/><use xlink:href="#i" transform="matrix(1,0,0,1,625.9266824178897,2750.8333333333326) translate(61.666666666666664 17.77777777777778)"/><use xlink:href="#j" transform="matrix(1,0,0,1,625.9266824178897,2750.8333333333326) translate(75.24691358024691 17.77777777777778)"/><use xlink:href="#i" transform="matrix(1,0,0,1,625.9266824178897,2750.8333333333326) translate(98.20987654320987 17.77777777777778)"/><use xlink:href="#G" transform="matrix(1,0,0,1,625.9266824178897,2750.8333333333326) translate(111.79012345679013 17.77777777777778)"/><use xlink:href="#l" transform="matrix(1,0,0,1,625.9266824178897,2750.8333333333326) translate(164.7530864197531 17.77777777777778)"/><use xlink:href="#m" transform="matrix(1,0,0,1,625.9266824178897,2750.8333333333326) translate(183.2716049382716 17.77777777777778)"/><use xlink:href="#n" transform="matrix(1,0,0,1,625.9266824178897,2750.8333333333326) translate(196.85185185185185 17.77777777777778)"/><path d="M715.6 504.07a6.5 6.5 0 0 1 8.8 0l101.2 93.52a5.55 5.55 0 0 1 0 8.14l-101.2 93.52a6.5 6.5 0 0 1-8.8 0l-101.2-93.52a5.55 5.55 0 0 1 0-8.15z" stroke="#3a414a" fill="#fff"/><use xlink:href="#H" transform="matrix(1,0,0,1,615.0000000000001,505.00000000000006) translate(61.239567901234565 90.52777777777777)"/><use xlink:href="#I" transform="matrix(1,0,0,1,615.0000000000001,505.00000000000006) translate(77.90623456790124 117.19444444444446)"/><path d="M560 827.67a6 6 0 0 1 6-6h308a6 6 0 0 1 6 6v108a6 6 0 0 1-6 6H566a6 6 0 0 1-6-6z" stroke="#3a414a" fill="#fff"/><path d="M592 821.67v120m256-120v120" stroke="#3a414a" fill="none"/><use xlink:href="#o" transform="matrix(1,0,0,1,605,826.6666666666667) translate(0 17.77777777777778)"/><path d="M600 867.67a6 6 0 0 1 6-6h228a6 6 0 0 1 6 6v48a6 6 0 0 1-6 6H606a6 6 0 0 1-6-6z" stroke="#000" stroke-opacity="0" fill="#fff" fill-opacity="0"/><use xlink:href="#p" transform="matrix(1,0,0,1,605,866.6666666666667) translate(0 17.77777777777778)"/><use xlink:href="#q" transform="matrix(1,0,0,1,605,866.6666666666667) translate(62.901234567901234 17.77777777777778)"/><path d="M720.5 804.82h-1v-32.8h1zm0-54.14h-1v-48.7h1z" stroke="#3a414a" stroke-width=".05" fill="#3a414a"/><path d="M720 701.5l.5-.05v.55h-1v-.55z" fill="#3a414a"/><path d="M720 701.46l.52-.04v.6h-1.04v-.6zm-.48.5h.96v-.48l-.48.03-.48-.02z" stroke="#3a414a" stroke-width=".05" fill="#3a414a"/><path d="M720 819.58l-4.64-14.26h9.28z" fill="#3a414a"/><path d="M720 821.2l-5.32-16.38h10.64zm-3.95-15.38l3.95 12.15 3.95-12.15z" stroke="#3a414a" stroke-width=".05" fill="#3a414a"/><use xlink:href="#J" transform="matrix(1,0,0,1,690.962962962963,750.6784100753739) translate(0 14.222222222222223)"/><path d="M175.6 1430.57a6.5 6.5 0 0 1 8.8 0l101.2 93.52a5.55 5.55 0 0 1 0 8.14l-101.2 93.52a6.5 6.5 0 0 1-8.8 0l-101.2-93.52a5.55 5.55 0 0 1 0-8.15z" stroke="#3a414a" fill="#fff"/><use xlink:href="#K" transform="matrix(1,0,0,1,75,1431.50000013896) translate(76.6408024691358 90.52777777777777)"/><use xlink:href="#L" transform="matrix(1,0,0,1,75,1431.50000013896) translate(74.81981481481482 117.19444444444446)"/><path d="M258 1838.83c28.72 0 52 31.34 52 70s-23.28 70-52 70H102c-28.72 0-52-31.34-52-70s23.28-70 52-70z" stroke="#3a414a" fill="#fff"/><use xlink:href="#M" transform="matrix(1,0,0,1,55,1843.8333334028132) translate(50.956790123456784 54.34027777777778)"/><use xlink:href="#N" transform="matrix(1,0,0,1,55,1843.8333334028132) translate(101.51234567901236 54.34027777777778)"/><use xlink:href="#O" transform="matrix(1,0,0,1,55,1843.8333334028132) translate(174.35185185185185 54.34027777777778)"/><use xlink:href="#P" transform="matrix(1,0,0,1,55,1843.8333334028132) translate(58.4567901234568 81.00694444444446)"/><use xlink:href="#Q" transform="matrix(1,0,0,1,55,1843.8333334028132) translate(134.93827160493828 81.00694444444446)"/><path d="M252.7 602.17h-66.68l-.88.07-.84.2-.8.33-.73.45-.66.56-.55.65-.45.74-.33.8-.2.82-.07 204.02h-1l.07-204.15.25-1 .4-.95.52-.87.66-.78.78-.66.87-.53.94-.4.98-.22 1-.08h66.72zm358.92 0H313.9v-1H611.6z" stroke="#3a414a" stroke-width=".05" fill="#3a414a"/><path d="M612.12 601.67l.04.5h-.55v-1h.56z" fill="#3a414a"/><path d="M612.15 601.67l.04.52h-.6v-1.06h.6zm-.5-.48v.94h.5l-.05-.47.04-.48z" stroke="#3a414a" stroke-width=".05" fill="#3a414a"/><path d="M180 825.6l-4.64-14.28h9.28z" fill="#3a414a"/><path d="M180 827.2l-5.32-16.38h10.64zm-3.95-15.38l3.95 12.15 3.95-12.15z" stroke="#3a414a" stroke-width=".05" fill="#3a414a"/><use xlink:href="#R" transform="matrix(1,0,0,1,252.70050835022755,590.99999993052) translate(0 14.222222222222223)"/><path d="M180 948.63v463.33" stroke="#3a414a" fill="none"/><path d="M180.5 948.64h-1v-.5h1z" stroke="#3a414a" stroke-width=".05" fill="#3a414a"/><path d="M180 1426.73l-4.64-14.27h9.28z" stroke="#3a414a" fill="#3a414a"/><path d="M180.5 1821.95h-1v-78.12h1zm0-99.46h-1v-94h1z" stroke="#3a414a" stroke-width=".05" fill="#3a414a"/><path d="M180 1628l.5-.05v.55h-1v-.55z" fill="#3a414a"/><path d="M180 1627.96l.53-.04v.6h-1.06v-.6zm-.47.5h.94v-.48l-.47.03-.47-.02z" stroke="#3a414a" stroke-width=".05" fill="#3a414a"/><path d="M180 1836.72l-4.64-14.27h9.28z" fill="#3a414a"/><path d="M180 1838.33l-5.32-16.38h10.64zm-3.95-15.38l3.95 12.15 3.95-12.15z" stroke="#3a414a" stroke-width=".05" fill="#3a414a"/><use xlink:href="#S" transform="matrix(1,0,0,1,156.320987654321,1722.4933109416972) translate(0 14.222222222222223)"/><path d="M720 400.96v84.5" stroke="#3a414a" fill="none"/><path d="M720.5 400.98h-1v-.52h1z" stroke="#3a414a" stroke-width=".05" fill="#3a414a"/><path d="M720 500.23l-4.64-14.27h9.28z" stroke="#3a414a" fill="#3a414a"/><path d="M715.6 1064.07a6.5 6.5 0 0 1 8.8 0l101.2 93.52a5.55 5.55 0 0 1 0 8.14l-101.2 93.52a6.5 6.5 0 0 1-8.8 0l-101.2-93.52a5.55 5.55 0 0 1 0-8.15z" stroke="#3a414a" fill="#fff"/><use xlink:href="#K" transform="matrix(1,0,0,1,615.0000000000001,1065) translate(76.6408024691358 90.52777777777777)"/><use xlink:href="#L" transform="matrix(1,0,0,1,615.0000000000001,1065) translate(74.81981481481482 117.19444444444446)"/><path d="M720 942.63v102.82" stroke="#3a414a" fill="none"/><path d="M720.5 942.64h-1v-.5h1z" stroke="#3a414a" stroke-width=".05" fill="#3a414a"/><path d="M720 1060.23l-4.64-14.27h9.28z" stroke="#3a414a" fill="#3a414a"/><path d="M720.5 1453h-1v-76.9h1zm0-98.24h-1V1262h1z" stroke="#3a414a" stroke-width=".05" fill="#3a414a"/><path d="M720 1261.5l.5-.05v.55h-1v-.55z" fill="#3a414a"/><path d="M720 1261.46l.52-.04v.6h-1.04v-.6zm-.48.5h.96v-.48l-.48.03-.48-.02z" stroke="#3a414a" stroke-width=".05" fill="#3a414a"/><path d="M720 1467.75l-4.64-14.26h9.28z" fill="#3a414a"/><path d="M720 1469.37l-5.32-16.38h10.64zm-3.95-15.38l3.95 12.13 3.95-12.14z" stroke="#3a414a" stroke-width=".05" fill="#3a414a"/><use xlink:href="#R" transform="matrix(1,0,0,1,689.4074074074075,1354.7617434087072) translate(0 14.222222222222223)"/><path d="M543.15 1529.33v1h-88.02v-1zm-254.77-.66v-1h105.57v1z" stroke="#3a414a" stroke-width=".05" fill="#3a414a"/><path d="M288.4 1528.67h-.56l.04-.5-.04-.5h.55z" fill="#3a414a"/><path d="M288.4 1528.7h-.6l.05-.53-.04-.53h.6zm-.54-1l.04.47-.04.47h.5v-.95z" stroke="#3a414a" stroke-width=".05" fill="#3a414a"/><path d="M557.92 1529.83l-14.27 4.64v-9.27z" fill="#3a414a"/><path d="M559.54 1529.83l-16.4 5.33v-10.65zm-15.4 3.95l12.16-3.95-12.15-3.94z" stroke="#3a414a" stroke-width=".05" fill="#3a414a"/><use xlink:href="#R" transform="matrix(1,0,0,1,393.94753650996347,1517.50000006948) translate(0 14.222222222222223)"/><path d="M798 1840.5c28.72 0 52 31.34 52 70s-23.28 70-52 70H642c-28.72 0-52-31.34-52-70s23.28-70 52-70z" stroke="#3a414a" fill="#fff"/><use xlink:href="#T" transform="matrix(1,0,0,1,594.9999999999999,1845.5000000000002) translate(76.88271604938271 54.34027777777778)"/><use xlink:href="#P" transform="matrix(1,0,0,1,594.9999999999999,1845.5000000000002) translate(58.4567901234568 81.00694444444446)"/><use xlink:href="#Q" transform="matrix(1,0,0,1,594.9999999999999,1845.5000000000002) translate(134.93827160493828 81.00694444444446)"/><path d="M720 1590.8v232.82" stroke="#3a414a" fill="none"/><path d="M720.5 1590.8h-1v-.5h1z" stroke="#3a414a" stroke-width=".05" fill="#3a414a"/><path d="M720 1838.38l-4.64-14.26h9.28z" stroke="#3a414a" fill="#3a414a"/><path d="M2104.25 1091.5a6 6 0 0 1 6-6h308a6 6 0 0 1 6 6v108a6 6 0 0 1-6 6h-308a6 6 0 0 1-6-6z" stroke="#3a414a" fill="#fff"/><path d="M2136.25 1085.5v120m256-120v120" stroke="#3a414a" fill="none"/><use xlink:href="#U" transform="matrix(1,0,0,1,2149.24613436626,1090.5) translate(0 17.77777777777778)"/><path d="M2144.25 1131.5a6 6 0 0 1 6-6h228a6 6 0 0 1 6 6v48a6 6 0 0 1-6 6h-228a6 6 0 0 1-6-6z" stroke="#000" stroke-opacity="0" fill="#fff" fill-opacity="0"/><use xlink:href="#h" transform="matrix(1,0,0,1,2149.24613436626,1130.5) translate(0 17.77777777777778)"/><use xlink:href="#i" transform="matrix(1,0,0,1,2149.24613436626,1130.5) translate(61.666666666666664 17.77777777777778)"/><use xlink:href="#V" transform="matrix(1,0,0,1,2149.24613436626,1130.5) translate(75.24691358024691 17.77777777777778)"/><use xlink:href="#l" transform="matrix(1,0,0,1,2149.24613436626,1130.5) translate(129.5679012345679 17.77777777777778)"/><use xlink:href="#n" transform="matrix(1,0,0,1,2149.24613436626,1130.5) translate(148.08641975308643 17.77777777777778)"/><path d="M1799.26 601.25l1 .23.94.4.87.53.77.67.67.78.54.87.4.94.23 1 .08 182h-1l-.08-181.87-.2-.83-.32-.8-.46-.74-.57-.65-.65-.56-.74-.45-.8-.33-.83-.2-.87-.07h-356.8v-1h356.84zm-970.88.92v-1h565.7v1z" stroke="#3a414a" stroke-width=".05" fill="#3a414a"/><path d="M828.4 602.17h-.56l.04-.5-.04-.5h.55z" fill="#3a414a"/><path d="M828.4 602.2h-.6l.05-.53-.04-.53h.6zm-.54-1l.04.47-.04.47h.5v-.95z" stroke="#3a414a" stroke-width=".05" fill="#3a414a"/><path d="M1804.25 803.42l-4.64-14.27h9.28z" fill="#3a414a"/><path d="M1804.25 805.04l-5.33-16.4h10.65zm-3.95-15.4l3.95 12.16 3.94-12.15z" stroke="#3a414a" stroke-width=".05" fill="#3a414a"/><use xlink:href="#S" transform="matrix(1,0,0,1,1394.0676205185227,590.99999993052) translate(0 14.222222222222223)"/><path d="M1799.84 1047.9a6.5 6.5 0 0 1 8.8 0l101.2 93.53a5.55 5.55 0 0 1 0 8.14l-101.2 93.52a6.5 6.5 0 0 1-8.8 0l-101.2-93.53a5.55 5.55 0 0 1 0-8.14z" stroke="#3a414a" fill="#fff"/><use xlink:href="#W" transform="matrix(1,0,0,1,1699.2461343662594,1048.8333333333333) translate(30.467962962962968 90.52777777777777)"/><use xlink:href="#X" transform="matrix(1,0,0,1,1699.2461343662594,1048.8333333333333) translate(135.22104938271605 90.52777777777777)"/><use xlink:href="#Y" transform="matrix(1,0,0,1,1699.2461343662594,1048.8333333333333) translate(72.38154320987654 117.19444444444446)"/><path d="M1992.64 1146h-80.02v-1h80.02zm94.76 0h-64.14v-1h64.14z" stroke="#3a414a" stroke-width=".05" fill="#3a414a"/><path d="M1912.64 1146h-.56l.04-.5-.04-.5h.56z" fill="#3a414a"/><path d="M1912.66 1146.03h-.6l.04-.53-.05-.53h.6zm-.55-1l.05.47-.04.47h.5v-.94z" stroke="#3a414a" stroke-width=".05" fill="#3a414a"/><path d="M2102.16 1145.5l-14.26 4.64v-9.28z" fill="#3a414a"/><path d="M2103.78 1145.5l-16.38 5.32v-10.64zm-15.38 3.95l12.15-3.95-12.15-3.95z" stroke="#3a414a" stroke-width=".05" fill="#3a414a"/><use xlink:href="#Z" transform="matrix(1,0,0,1,1992.6442881948901,1134.833333263853) translate(0 14.222222222222223)"/><path d="M1799.84 1507.94a6.5 6.5 0 0 1 8.8 0l101.2 93.52a5.55 5.55 0 0 1 0 8.15l-101.2 93.53a6.5 6.5 0 0 1-8.8 0l-101.2-93.52a5.55 5.55 0 0 1 0-8.14z" stroke="#3a414a" fill="#fff"/><use xlink:href="#aa" transform="matrix(1,0,0,1,1699.2461343662594,1508.8701984757931) translate(67.38154320987655 72.34027777777777)"/><use xlink:href="#ab" transform="matrix(1,0,0,1,1699.2461343662594,1508.8701984757931) translate(66.14697530864197 99.00694444444446)"/><use xlink:href="#ac" transform="matrix(1,0,0,1,1699.2461343662594,1508.8701984757931) translate(80.96179012345678 125.67361111111111)"/><path d="M2180 1355.83a6 6 0 0 1 6-6h148a6 6 0 0 1 6 6v114c-26.72-20.04-43.36-20.04-53.44-20.04-16 0-37.28 20.03-53.28 20.03-9.92 0-26.72 0-53.28-20.04z" stroke="#3a414a" fill="#fff"/><use xlink:href="#ad" transform="matrix(1,0,0,1,2185,1354.8333333333333) translate(37.376543209876544 37.46527777777778)"/><use xlink:href="#ae" transform="matrix(1,0,0,1,2185,1354.8333333333333) translate(36.141975308641975 64.13194444444446)"/><path d="M1724.25 1358.54a6 6 0 0 1 6-6h148a6 6 0 0 1 6 6v114c-26.72-20.04-43.36-20.04-53.44-20.04-16 0-37.27 20.04-53.27 20.04-9.92 0-26.72 0-53.28-20.04z" stroke="#3a414a" fill="#fff"/><use xlink:href="#ad" transform="matrix(1,0,0,1,1729.2461343662599,1357.5368651424599) translate(37.376543209876544 37.46527777777778)"/><use xlink:href="#ae" transform="matrix(1,0,0,1,1729.2461343662599,1357.5368651424599) translate(36.141975308641975 64.13194444444446)"/><path d="M1804.25 926.46v102.84" stroke="#3a414a" fill="none"/><path d="M1804.75 926.48h-1v-.52h1z" stroke="#3a414a" stroke-width=".05" fill="#3a414a"/><path d="M1804.25 1044.06l-4.64-14.26h9.28z" stroke="#3a414a" fill="#3a414a"/><path d="M1371.4 1600.42l.2.82.33.8.45.73.56.65.66.57.74.44.8.33.83.2.88.07h72.54v1h-72.6l-.98-.08-1-.24-.94-.4-.87-.52-.76-.67-.67-.77-.53-.87-.4-.95-.23-1.02-.07-69.15h1zm324.47 4.62v1h-168.6v-1z" stroke="#3a414a" stroke-width=".05" fill="#3a414a"/><path d="M1696.37 1605.54l.04.5h-.54v-1h.55z" fill="#3a414a"/><path d="M1696.4 1605.54l.04.52h-.6V1605h.6zm-.52-.48v.95h.5l-.04-.46.04-.48z" stroke="#3a414a" stroke-width=".05" fill="#3a414a"/><path d="M1375.47 1530.88h-9.27l4.63-14.26z" fill="#3a414a"/><path d="M1376.16 1531.38h-10.65l5.33-16.38zm-9.27-1h7.88l-3.95-12.14z" stroke="#3a414a" stroke-width=".05" fill="#3a414a"/><use xlink:href="#af" transform="matrix(1,0,0,1,1449.394373761912,1594.870198406313) translate(0 14.222222222222223)"/><path d="M1804.75 1799h-1v-27.97h1zm0-49.3h-1v-43.84h1z" stroke="#3a414a" stroke-width=".05" fill="#3a414a"/><path d="M1804.25 1705.36l.5-.04v.55h-1v-.55z" fill="#3a414a"/><path d="M1804.25 1705.33l.52-.04v.6h-1.05v-.6zm-.48.5h.95v-.48l-.47.03-.48-.03z" stroke="#3a414a" stroke-width=".05" fill="#3a414a"/><path d="M1804.25 1813.75l-4.64-14.26h9.28z" fill="#3a414a"/><path d="M1804.25 1815.37l-5.33-16.38h10.65zm-3.95-15.38l3.95 12.13 3.94-12.14z" stroke="#3a414a" stroke-width=".05" fill="#3a414a"/><use xlink:href="#ag" transform="matrix(1,0,0,1,1788.9621837489753,1749.6968426466035) translate(0 14.222222222222223)"/><path d="M740.93 2666.8v22.2" stroke="#3a414a" fill="none"/><path d="M741.43 2666.8h-1v-.5h1z" stroke="#3a414a" stroke-width=".05" fill="#3a414a"/><path d="M740.93 2703.75l-4.64-14.26h9.26z" stroke="#3a414a" fill="#3a414a"/><path d="M1372.12 1393.57v-171.22" stroke="#3a414a" fill="none"/><path d="M1372.62 1394.07h-1v-.5h1z" stroke="#3a414a" stroke-width=".05" fill="#3a414a"/><path d="M1372.12 1207.58l4.64 14.27h-9.27z" stroke="#3a414a" fill="#3a414a"/><path d="M1372.12 1084.54V986.5a6 6 0 0 1 6-6h880.13a6 6 0 0 1 6 6v82.15" stroke="#3a414a" fill="none"/><path d="M1372.62 1085.04h-1v-.52h1z" stroke="#3a414a" stroke-width=".05" fill="#3a414a"/><path d="M2264.25 1083.42l-4.64-14.27h9.28z" stroke="#3a414a" fill="#3a414a"/><path d="M740.93 2826.8V2849" stroke="#3a414a" fill="none"/><path d="M741.43 2826.8h-1v-.5h1z" stroke="#3a414a" stroke-width=".05" fill="#3a414a"/><path d="M740.93 2863.75l-4.64-14.26h9.26z" stroke="#3a414a" fill="#3a414a"/><path d="M1644.25 2306.5a6 6 0 0 1 6-6h308a6 6 0 0 1 6 6v108a6 6 0 0 1-6 6h-308a6 6 0 0 1-6-6z" stroke="#3a414a" fill="#fff"/><path d="M1676.25 2300.5v120m256-120v120" stroke="#3a414a" fill="none"/><use xlink:href="#ah" transform="matrix(1,0,0,1,1689.2461343662596,2305.5) translate(0 17.77777777777778)"/><path d="M1684.25 2346.5a6 6 0 0 1 6-6h228a6 6 0 0 1 6 6v51.33a6 6 0 0 1-6 6h-228a6 6 0 0 1-6-6z" stroke="#000" stroke-opacity="0" fill="#fff" fill-opacity="0"/><use xlink:href="#h" transform="matrix(1,0,0,1,1689.2461343662596,2345.5) translate(0 17.77777777777778)"/><use xlink:href="#i" transform="matrix(1,0,0,1,1689.2461343662596,2345.5) translate(61.666666666666664 17.77777777777778)"/><use xlink:href="#k" transform="matrix(1,0,0,1,1689.2461343662596,2345.5) translate(75.24691358024691 17.77777777777778)"/><use xlink:href="#l" transform="matrix(1,0,0,1,1689.2461343662596,2345.5) translate(144.32098765432096 17.77777777777778)"/><use xlink:href="#t" transform="matrix(1,0,0,1,1689.2461343662596,2345.5) translate(162.8395061728395 17.77777777777778)"/><use xlink:href="#u" transform="matrix(1,0,0,1,1689.2461343662596,2345.5) translate(0 44.44444444444444)"/><use xlink:href="#q" transform="matrix(1,0,0,1,1689.2461343662596,2345.5) translate(69.07407407407406 44.44444444444444)"/><path d="M1644.25 1986.5a6 6 0 0 1 6-6h308a6 6 0 0 1 6 6v108a6 6 0 0 1-6 6h-308a6 6 0 0 1-6-6z" stroke="#3a414a" fill="#fff"/><path d="M1676.25 1980.5v120m256-120v120" stroke="#3a414a" fill="none"/><use xlink:href="#ai" transform="matrix(1,0,0,1,1689.2461343662592,1985.5) translate(0 17.77777777777778)"/><path d="M1684.25 2026.5a6 6 0 0 1 6-6h228a6 6 0 0 1 6 6v48a6 6 0 0 1-6 6h-228a6 6 0 0 1-6-6z" stroke="#000" stroke-opacity="0" fill="#fff" fill-opacity="0"/><g><use xlink:href="#h" transform="matrix(1,0,0,1,1689.2461343662592,2025.5) translate(0 17.77777777777778)"/><use xlink:href="#i" transform="matrix(1,0,0,1,1689.2461343662592,2025.5) translate(61.666666666666664 17.77777777777778)"/><use xlink:href="#E" transform="matrix(1,0,0,1,1689.2461343662592,2025.5) translate(75.24691358024691 17.77777777777778)"/><use xlink:href="#l" transform="matrix(1,0,0,1,1689.2461343662592,2025.5) translate(135.74074074074073 17.77777777777778)"/><use xlink:href="#n" transform="matrix(1,0,0,1,1689.2461343662592,2025.5) translate(154.25925925925924 17.77777777777778)"/></g><path d="M1644.25 2151.17a6 6 0 0 1 6-6h308a6 6 0 0 1 6 6v108a6 6 0 0 1-6 6h-308a6 6 0 0 1-6-6z" stroke="#3a414a" fill="#fff"/><path d="M1676.25 2145.17v120m256-120v120" stroke="#3a414a" fill="none"/><g><use xlink:href="#aj" transform="matrix(1,0,0,1,1689.2461343662592,2150.166666666667) translate(0 17.77777777777778)"/></g><path d="M1684.25 2191.17a6 6 0 0 1 6-6h228a6 6 0 0 1 6 6v48a6 6 0 0 1-6 6h-228a6 6 0 0 1-6-6z" stroke="#000" stroke-opacity="0" fill="#fff" fill-opacity="0"/><g><use xlink:href="#h" transform="matrix(1,0,0,1,1689.2461343662592,2190.166666666667) translate(0 17.77777777777778)"/><use xlink:href="#i" transform="matrix(1,0,0,1,1689.2461343662592,2190.166666666667) translate(61.666666666666664 17.77777777777778)"/><use xlink:href="#G" transform="matrix(1,0,0,1,1689.2461343662592,2190.166666666667) translate(75.24691358024691 17.77777777777778)"/><use xlink:href="#l" transform="matrix(1,0,0,1,1689.2461343662592,2190.166666666667) translate(128.20987654320987 17.77777777777778)"/><use xlink:href="#n" transform="matrix(1,0,0,1,1689.2461343662592,2190.166666666667) translate(146.7283950617284 17.77777777777778)"/></g><path d="M1804.25 2101.46v26.87" stroke="#3a414a" fill="none"/><path d="M1804.75 2101.48h-1v-.52h1z" stroke="#3a414a" stroke-width=".05" fill="#3a414a"/><path d="M1804.25 2143.08l-4.64-14.26h9.28z" stroke="#3a414a" fill="#3a414a"/><path d="M1804.25 2266.13v17.52" stroke="#3a414a" fill="none"/><path d="M1804.75 2266.14h-1v-.5h1z" stroke="#3a414a" stroke-width=".05" fill="#3a414a"/><path d="M1804.25 2298.42l-4.64-14.27h9.28z" stroke="#3a414a" fill="#3a414a"/><path d="M1804.25 1936.8v26.85" stroke="#3a414a" fill="none"/><path d="M1804.75 1936.8h-1v-.5h1z" stroke="#3a414a" stroke-width=".05" fill="#3a414a"/><path d="M1804.25 1978.42l-4.64-14.27h9.28z" stroke="#3a414a" fill="#3a414a"/><path d="M1212.12 2551.83a6 6 0 0 1 6-6h308a6 6 0 0 1 6 6v108a6 6 0 0 1-6 6h-308a6 6 0 0 1-6-6z" stroke="#3a414a" fill="#fff"/><path d="M1244.12 2545.83v120m256-120v120" stroke="#3a414a" fill="none"/><g><use xlink:href="#ak" transform="matrix(1,0,0,1,1257.1230671831297,2550.8333333333326) translate(0 17.77777777777778)"/><use xlink:href="#al" transform="matrix(1,0,0,1,1257.1230671831297,2550.8333333333326) translate(78.64197530864197 17.77777777777778)"/></g><path d="M1252.12 2591.83a6 6 0 0 1 6-6h228a6 6 0 0 1 6 6v48a6 6 0 0 1-6 6h-228a6 6 0 0 1-6-6z" stroke="#000" stroke-opacity="0" fill="#fff" fill-opacity="0"/><g><use xlink:href="#h" transform="matrix(1,0,0,1,1257.1230671831297,2590.8333333333326) translate(0 17.77777777777778)"/><use xlink:href="#i" transform="matrix(1,0,0,1,1257.1230671831297,2590.8333333333326) translate(61.666666666666664 17.77777777777778)"/><use xlink:href="#C" transform="matrix(1,0,0,1,1257.1230671831297,2590.8333333333326) translate(75.24691358024691 17.77777777777778)"/><use xlink:href="#l" transform="matrix(1,0,0,1,1257.1230671831297,2590.8333333333326) translate(148.02469135802468 17.77777777777778)"/><use xlink:href="#n" transform="matrix(1,0,0,1,1257.1230671831297,2590.8333333333326) translate(166.5432098765432 17.77777777777778)"/></g><path d="M1799.84 2514.57a6.5 6.5 0 0 1 8.8 0l101.2 93.52a5.55 5.55 0 0 1 0 8.14l-101.2 93.52a6.5 6.5 0 0 1-8.8 0l-101.2-93.52a5.55 5.55 0 0 1 0-8.15z" stroke="#3a414a" fill="#fff"/><g><use xlink:href="#am" transform="matrix(1,0,0,1,1699.246134366259,2515.4999999999995) translate(40.28277777777778 90.52777777777777)"/><use xlink:href="#an" transform="matrix(1,0,0,1,1699.246134366259,2515.4999999999995) translate(136.51734567901235 90.52777777777777)"/><use xlink:href="#ao" transform="matrix(1,0,0,1,1699.246134366259,2515.4999999999995) translate(74.20253086419753 117.19444444444446)"/></g><path d="M1695.87 2611.67v1h-66.08v-1zm-96.7-.98v1l-50.2-.03v-1z" stroke="#3a414a" stroke-width=".05" fill="#3a414a"/><path d="M1696.37 2612.17l.04.5h-.54v-1h.55z" fill="#3a414a"/><path d="M1696.4 2612.17l.04.52h-.6v-1.06h.6zm-.52-.48v.94h.5l-.04-.47.04-.48z" stroke="#3a414a" stroke-width=".05" fill="#3a414a"/><path d="M1548.47 2615.8l-14.26-4.63 14.27-4.64z" fill="#3a414a"/><path d="M1548.97 2616.5l-16.38-5.33 16.37-5.33zm-13.14-5.33l12.14 3.94v-7.88z" stroke="#3a414a" stroke-width=".05" fill="#3a414a"/><g><use xlink:href="#Z" transform="matrix(1,0,0,1,1599.1709733037237,2600.999999930519) translate(0 14.222222222222223)"/></g><path d="M818.46 3115.1c28.72 0 52 31.33 52 70 0 38.65-23.28 70-52 70h-156c-28.72 0-52-31.35-52-70 0-38.67 23.28-70 52-70z" stroke="#3a414a" fill="#fff"/><g><use xlink:href="#T" transform="matrix(1,0,0,1,615.4633412089446,3120.0900224958555) translate(76.88271604938271 54.34027777777778)"/><use xlink:href="#ap" transform="matrix(1,0,0,1,615.4633412089446,3120.0900224958555) translate(65.8641975308642 81.00694444444446)"/><use xlink:href="#Q" transform="matrix(1,0,0,1,615.4633412089446,3120.0900224958555) translate(127.53086419753086 81.00694444444446)"/></g><path d="M1882.25 3115.1c28.7 0 52 31.33 52 70 0 38.65-23.3 70-52 70h-156c-28.72 0-52-31.35-52-70 0-38.67 23.28-70 52-70z" stroke="#3a414a" fill="#fff"/><g><use xlink:href="#T" transform="matrix(1,0,0,1,1679.2461343662599,3120.0900224958555) translate(76.88271604938271 54.34027777777778)"/><use xlink:href="#ap" transform="matrix(1,0,0,1,1679.2461343662599,3120.0900224958555) translate(65.8641975308642 81.00694444444446)"/><use xlink:href="#Q" transform="matrix(1,0,0,1,1679.2461343662599,3120.0900224958555) translate(127.53086419753086 81.00694444444446)"/></g><path d="M1804.75 3098.2h-1v-174.25h1zm0-195.58h-1V2712.5h1z" stroke="#3a414a" stroke-width=".05" fill="#3a414a"/><path d="M1804.25 2712l.5-.05v.55h-1v-.55z" fill="#3a414a"/><path d="M1804.25 2711.96l.52-.04v.6h-1.05v-.6zm-.48.5h.95v-.48l-.47.03-.48-.02z" stroke="#3a414a" stroke-width=".05" fill="#3a414a"/><path d="M1804.25 3112.97l-4.64-14.26h9.28z" fill="#3a414a"/><path d="M1804.25 3114.6l-5.33-16.4h10.65zm-3.95-15.4l3.95 12.15 3.94-12.14z" stroke="#3a414a" stroke-width=".05" fill="#3a414a"/><g><use xlink:href="#aq" transform="matrix(1,0,0,1,1792.4436652304564,2902.621655418738) translate(0 14.222222222222223)"/></g><path d="M740.93 2986.8v63.4a.23.23 0 0 1-.23.24.23.23 0 0 0-.24.23v47.54" stroke="#3a414a" fill="none"/><path d="M741.43 2986.8h-1v-.5h1z" stroke="#3a414a" stroke-width=".05" fill="#3a414a"/><path d="M740.46 3112.97l-4.63-14.26h9.27z" stroke="#3a414a" fill="#3a414a"/><path d="M1804.25 2421.46v74.5" stroke="#3a414a" fill="none"/><path d="M1804.75 2421.48h-1v-.52h1z" stroke="#3a414a" stroke-width=".05" fill="#3a414a"/><path d="M1804.25 2510.73l-4.64-14.27h9.28z" stroke="#3a414a" fill="#3a414a"/><path d="M1211.16 2605.83h-293.4" stroke="#3a414a" fill="none"/><path d="M1211.66 2606.33h-.5v-1h.5z" stroke="#3a414a" stroke-width=".05" fill="#3a414a"/><path d="M903 2605.83l14.27-4.63v9.27z" stroke="#3a414a" fill="#3a414a"/><path d="M2264.25 1206.46v126.52" stroke="#3a414a" fill="none"/><path d="M2264.75 1206.48h-1v-.52h1z" stroke="#3a414a" stroke-width=".05" fill="#3a414a"/><path d="M2264.25 1347.75l-4.64-14.27h9.28z" stroke="#3a414a" fill="#3a414a"/><path d="M1804.75 1335.7h-1v-26.34h1zm0-47.67h-1v-42.2h1z" stroke="#3a414a" stroke-width=".05" fill="#3a414a"/><path d="M1804.25 1245.32l.5-.04v.55h-1v-.55z" fill="#3a414a"/><path d="M1804.25 1245.3l.52-.04v.6h-1.05v-.6zm-.48.5h.95v-.5l-.47.05-.48-.04z" stroke="#3a414a" stroke-width=".05" fill="#3a414a"/><path d="M1804.25 1350.46l-4.64-14.27h9.28z" fill="#3a414a"/><path d="M1804.25 1352.07l-5.33-16.38h10.65zm-3.95-15.38l3.95 12.14 3.94-12.15z" stroke="#3a414a" stroke-width=".05" fill="#3a414a"/><g><use xlink:href="#aq" transform="matrix(1,0,0,1,1792.4436652304569,1288.0301156129105) translate(0 14.222222222222223)"/></g><path d="M1804.25 1463.36v25.97" stroke="#3a414a" fill="none"/><path d="M1804.75 1463.37h-1v-.26l1-.5z" stroke="#3a414a" stroke-width=".05" fill="#3a414a"/><path d="M1804.25 1504.1l-4.64-14.27h9.28z" stroke="#3a414a" fill="#3a414a"/><path d="M2260 1460.66v138.88a6 6 0 0 1-6 6h-325.5" stroke="#3a414a" fill="none"/><path d="M2260.5 1460.67h-1v-.26l1-.5z" stroke="#3a414a" stroke-width=".05" fill="#3a414a"/><path d="M1913.74 1605.54l14.27-4.64v9.27z" stroke="#3a414a" fill="#3a414a"/><path d="M828.38 1161.67H1014a6 6 0 0 0 6-6V871.5a6 6 0 0 1 6-6h601.4" stroke="#3a414a" fill="none"/><path d="M828.4 1162.17h-.56l.04-.5-.04-.5h.55z" stroke="#3a414a" stroke-width=".05" fill="#3a414a"/><path d="M1642.16 865.5l-14.26 4.64v-9.28z" stroke="#3a414a" fill="#3a414a"/><g><use xlink:href="#S" transform="matrix(1,0,0,1,1068.8781805739327,840.1666666666667) translate(0 14.222222222222223)"/></g><path d="M793 20c28.72 0 52 31.34 52 70s-23.28 70-52 70H637c-28.72 0-52-31.34-52-70s23.28-70 52-70z" stroke="#3a414a" fill="#fff"/><g><use xlink:href="#ar" transform="matrix(1,0,0,1,589.9999999999999,25) translate(99.75308641975309 70.59027777777777)"/></g><path d="M715 161v102.15" stroke="#3a414a" fill="none"/><path d="M715.5 161h-1v-.5h1z" stroke="#3a414a" stroke-width=".05" fill="#3a414a"/><path d="M715 277.92l-4.64-14.27h9.28z" stroke="#3a414a" fill="#3a414a"/><defs><path fill="#282c33" d="M137-138c1-29-70-34-71-4 15 46 118 7 119 86 1 83-164 76-172 9l43-7c4 19 20 25 44 25 33 8 57-30 24-41C81-84 22-81 20-136c-2-80 154-74 161-7" id="as"/><path fill="#282c33" d="M114-157C55-157 80-60 75 0H25v-261h50l-1 109c12-26 28-41 61-42 86-1 58 113 63 194h-50c-7-57 23-157-34-157" id="at"/><path fill="#282c33" d="M133-34C117-15 103 5 69 4 32 3 11-16 11-54c-1-60 55-63 116-61 1-26-3-47-28-47-18 1-26 9-28 27l-52-2c7-38 36-58 82-57s74 22 75 68l1 82c-1 14 12 18 25 15v27c-30 8-71 5-69-32zm-48 3c29 0 43-24 42-57-32 0-66-3-65 30 0 17 8 27 23 27" id="au"/><path fill="#282c33" d="M135-150c-39-12-60 13-60 57V0H25l-1-190h47c2 13-1 29 3 40 6-28 27-53 61-41v41" id="av"/><path fill="#282c33" d="M185-48c-13 30-37 53-82 52C43 2 14-33 14-96s30-98 90-98c62 0 83 45 84 108H66c0 31 8 55 39 56 18 0 30-7 34-22zm-45-69c5-46-57-63-70-21-2 6-4 13-4 21h74" id="aw"/><g id="a"><use transform="matrix(0.06172839506172839,0,0,0.06172839506172839,0,0)" xlink:href="#as"/><use transform="matrix(0.06172839506172839,0,0,0.06172839506172839,12.345679012345679,0)" xlink:href="#at"/><use transform="matrix(0.06172839506172839,0,0,0.06172839506172839,25.864197530864196,0)" xlink:href="#au"/><use transform="matrix(0.06172839506172839,0,0,0.06172839506172839,38.20987654320987,0)" xlink:href="#av"/><use transform="matrix(0.06172839506172839,0,0,0.06172839506172839,46.85185185185185,0)" xlink:href="#aw"/></g><path fill="#282c33" d="M125-100v72H85v-72H15v-39h70v-72h40v72h71v39h-71" id="ax"/><use transform="matrix(0.06172839506172839,0,0,0.06172839506172839,0,0)" xlink:href="#ax" id="b"/><path fill="#282c33" d="M121-226c-27-7-43 5-38 36h38v33H83V0H34v-157H6v-33h28c-9-59 32-81 87-68v32" id="ay"/><path fill="#282c33" d="M25-224v-37h50v37H25zM25 0v-190h50V0H25" id="az"/><g id="c"><use transform="matrix(0.06172839506172839,0,0,0.06172839506172839,0,0)" xlink:href="#ay"/><use transform="matrix(0.06172839506172839,0,0,0.06172839506172839,7.345679012345679,0)" xlink:href="#ay"/><use transform="matrix(0.06172839506172839,0,0,0.06172839506172839,14.691358024691358,0)" xlink:href="#az"/></g><g id="d"><use transform="matrix(0.06172839506172839,0,0,0.06172839506172839,0,0)" xlink:href="#as"/><use transform="matrix(0.06172839506172839,0,0,0.06172839506172839,12.345679012345679,0)" xlink:href="#at"/><use transform="matrix(0.06172839506172839,0,0,0.06172839506172839,25.864197530864196,0)" xlink:href="#au"/><use transform="matrix(0.06172839506172839,0,0,0.06172839506172839,38.20987654320987,0)" xlink:href="#av"/><use transform="matrix(0.06172839506172839,0,0,0.06172839506172839,46.85185185185185,0)" xlink:href="#aw"/></g><path fill="#282c33" d="M123 10C108 53 80 86 19 72V37c35 8 53-11 59-39L3-190h52l48 148c12-52 28-100 44-148h51" id="aA"/><path fill="#282c33" d="M115-3C79 11 28 4 28-45v-112H4v-33h27l15-45h31v45h36v33H77v99c-1 23 16 31 38 25v30" id="aB"/><path fill="#282c33" d="M220-157c-53 9-28 100-34 157h-49v-107c1-27-5-49-29-50C55-147 81-57 75 0H25l-1-190h47c2 12-1 28 3 38 10-53 101-56 108 0 13-22 24-43 59-42 82 1 51 116 57 194h-49v-107c-1-25-5-48-29-50" id="aC"/><g id="e"><use transform="matrix(0.06172839506172839,0,0,0.06172839506172839,0,0)" xlink:href="#as"/><use transform="matrix(0.06172839506172839,0,0,0.06172839506172839,12.345679012345679,0)" xlink:href="#aA"/><use transform="matrix(0.06172839506172839,0,0,0.06172839506172839,24.691358024691358,0)" xlink:href="#as"/><use transform="matrix(0.06172839506172839,0,0,0.06172839506172839,37.03703703703704,0)" xlink:href="#aB"/><use transform="matrix(0.06172839506172839,0,0,0.06172839506172839,44.382716049382715,0)" xlink:href="#aw"/><use transform="matrix(0.06172839506172839,0,0,0.06172839506172839,56.72839506172839,0)" xlink:href="#aC"/></g><path fill="#3a414a" d="M110-194c64 0 96 36 96 99 0 64-35 99-97 99-61 0-95-36-95-99 0-62 34-99 96-99zm-1 164c35 0 45-28 45-65 0-40-10-65-43-65-34 0-45 26-45 65 0 36 10 65 43 65" id="aD"/><path fill="#3a414a" d="M128 0H69L1-190h53L99-40l48-150h52" id="aE"/><path fill="#3a414a" d="M185-48c-13 30-37 53-82 52C43 2 14-33 14-96s30-98 90-98c62 0 83 45 84 108H66c0 31 8 55 39 56 18 0 30-7 34-22zm-45-69c5-46-57-63-70-21-2 6-4 13-4 21h74" id="aF"/><path fill="#3a414a" d="M135-150c-39-12-60 13-60 57V0H25l-1-190h47c2 13-1 29 3 40 6-28 27-53 61-41v41" id="aG"/><path fill="#3a414a" d="M25-224v-37h50v37H25zM25 0v-190h50V0H25" id="aH"/><path fill="#3a414a" d="M88-194c31-1 46 15 58 34l-1-101h50l1 261h-48c-2-10 0-23-3-31C134-8 116 4 84 4 32 4 16-41 15-95c0-56 19-97 73-99zm17 164c33 0 40-30 41-66 1-37-9-64-41-64s-38 30-39 65c0 43 13 65 39 65" id="aI"/><g id="f"><use transform="matrix(0.06172839506172839,0,0,0.06172839506172839,0,0)" xlink:href="#aD"/><use transform="matrix(0.06172839506172839,0,0,0.06172839506172839,13.518518518518517,0)" xlink:href="#aE"/><use transform="matrix(0.06172839506172839,0,0,0.06172839506172839,25.864197530864196,0)" xlink:href="#aF"/><use transform="matrix(0.06172839506172839,0,0,0.06172839506172839,38.20987654320987,0)" xlink:href="#aG"/><use transform="matrix(0.06172839506172839,0,0,0.06172839506172839,46.85185185185185,0)" xlink:href="#aG"/><use transform="matrix(0.06172839506172839,0,0,0.06172839506172839,55.49382716049382,0)" xlink:href="#aH"/><use transform="matrix(0.06172839506172839,0,0,0.06172839506172839,61.666666666666664,0)" xlink:href="#aI"/><use transform="matrix(0.06172839506172839,0,0,0.06172839506172839,75.18518518518518,0)" xlink:href="#aF"/></g><path fill="#3a414a" d="M195-6C206 82 75 100 31 46c-4-6-6-13-8-21l49-6c3 16 16 24 34 25 40 0 42-37 40-79-11 22-30 35-61 35-53 0-70-43-70-97 0-56 18-96 73-97 30 0 46 14 59 34l2-30h47zm-90-29c32 0 41-27 41-63 0-35-9-62-40-62-32 0-39 29-40 63 0 36 9 62 39 62" id="aJ"/><path fill="#3a414a" d="M133-34C117-15 103 5 69 4 32 3 11-16 11-54c-1-60 55-63 116-61 1-26-3-47-28-47-18 1-26 9-28 27l-52-2c7-38 36-58 82-57s74 22 75 68l1 82c-1 14 12 18 25 15v27c-30 8-71 5-69-32zm-48 3c29 0 43-24 42-57-32 0-66-3-65 30 0 17 8 27 23 27" id="aK"/><path fill="#3a414a" d="M115-3C79 11 28 4 28-45v-112H4v-33h27l15-45h31v45h36v33H77v99c-1 23 16 31 38 25v30" id="aL"/><path fill="#3a414a" d="M114-157C55-157 80-60 75 0H25v-261h50l-1 109c12-26 28-41 61-42 86-1 58 113 63 194h-50c-7-57 23-157-34-157" id="aM"/><path fill="#3a414a" d="M-4 44V30h207v14H-4" id="aN"/><path fill="#3a414a" d="M121-226c-27-7-43 5-38 36h38v33H83V0H34v-157H6v-33h28c-9-59 32-81 87-68v32" id="aO"/><g id="g"><use transform="matrix(0.06172839506172839,0,0,0.06172839506172839,0,0)" xlink:href="#aJ"/><use transform="matrix(0.06172839506172839,0,0,0.06172839506172839,13.518518518518517,0)" xlink:href="#aK"/><use transform="matrix(0.06172839506172839,0,0,0.06172839506172839,25.864197530864196,0)" xlink:href="#aL"/><use transform="matrix(0.06172839506172839,0,0,0.06172839506172839,33.20987654320987,0)" xlink:href="#aM"/><use transform="matrix(0.06172839506172839,0,0,0.06172839506172839,46.72839506172839,0)" xlink:href="#aF"/><use transform="matrix(0.06172839506172839,0,0,0.06172839506172839,59.07407407407407,0)" xlink:href="#aG"/><use transform="matrix(0.06172839506172839,0,0,0.06172839506172839,67.71604938271605,0)" xlink:href="#aN"/><use transform="matrix(0.06172839506172839,0,0,0.06172839506172839,80.06172839506173,0)" xlink:href="#aO"/><use transform="matrix(0.06172839506172839,0,0,0.06172839506172839,87.40740740740742,0)" xlink:href="#aO"/><use transform="matrix(0.06172839506172839,0,0,0.06172839506172839,94.7530864197531,0)" xlink:href="#aH"/></g><path fill="#1071e5" d="M135-143c-3-34-86-38-87 0 15 53 115 12 119 90S17 21 10-45l28-5c4 36 97 45 98 0-10-56-113-15-118-90-4-57 82-63 122-42 12 7 21 19 24 35" id="aP"/><path fill="#1071e5" d="M106-169C34-169 62-67 57 0H25v-261h32l-1 103c12-21 28-36 61-36 89 0 53 116 60 194h-32v-121c2-32-8-49-39-48" id="aQ"/><path fill="#1071e5" d="M141-36C126-15 110 5 73 4 37 3 15-17 15-53c-1-64 63-63 125-63 3-35-9-54-41-54-24 1-41 7-42 31l-33-3c5-37 33-52 76-52 45 0 72 20 72 64v82c-1 20 7 32 28 27v20c-31 9-61-2-59-35zM48-53c0 20 12 33 32 33 41-3 63-29 60-74-43 2-92-5-92 41" id="aR"/><path fill="#1071e5" d="M114-163C36-179 61-72 57 0H25l-1-190h30c1 12-1 29 2 39 6-27 23-49 58-41v29" id="aS"/><path fill="#1071e5" d="M100-194c63 0 86 42 84 106H49c0 40 14 67 53 68 26 1 43-12 49-29l28 8c-11 28-37 45-77 45C44 4 14-33 15-96c1-61 26-98 85-98zm52 81c6-60-76-77-97-28-3 7-6 17-6 28h103" id="aT"/><g id="h"><use transform="matrix(0.06172839506172839,0,0,0.06172839506172839,0,0)" xlink:href="#aP"/><use transform="matrix(0.06172839506172839,0,0,0.06172839506172839,11.11111111111111,0)" xlink:href="#aQ"/><use transform="matrix(0.06172839506172839,0,0,0.06172839506172839,23.45679012345679,0)" xlink:href="#aR"/><use transform="matrix(0.06172839506172839,0,0,0.06172839506172839,35.80246913580247,0)" xlink:href="#aS"/><use transform="matrix(0.06172839506172839,0,0,0.06172839506172839,43.148148148148145,0)" xlink:href="#aT"/></g><path fill="#1071e5" d="M39-94c74 12-11 154 75 146v23c-44 4-70-10-70-52C44-23 55-84 6-82v-22c81 4-7-162 84-157h24v23c-82-15-2 131-75 144" id="aU"/><use transform="matrix(0.06172839506172839,0,0,0.06172839506172839,0,0)" xlink:href="#aU" id="i"/><path fill="#1071e5" d="M101-234c-31-9-42 10-38 44h38v23H63V0H32v-167H5v-23h27c-7-52 17-82 69-68v24" id="aV"/><path fill="#1071e5" d="M24-231v-30h32v30H24zM24 0v-190h32V0H24" id="aW"/><g id="j"><use transform="matrix(0.06172839506172839,0,0,0.06172839506172839,0,0)" xlink:href="#aV"/><use transform="matrix(0.06172839506172839,0,0,0.06172839506172839,5.7407407407407405,0)" xlink:href="#aV"/><use transform="matrix(0.06172839506172839,0,0,0.06172839506172839,11.913580246913579,0)" xlink:href="#aW"/></g><path fill="#1071e5" d="M177-190C167-65 218 103 67 71c-23-6-38-20-44-43l32-5c15 47 100 32 89-28v-30C133-14 115 1 83 1 29 1 15-40 15-95c0-56 16-97 71-98 29-1 48 16 59 35 1-10 0-23 2-32h30zM94-22c36 0 50-32 50-73 0-42-14-75-50-75-39 0-46 34-46 75s6 73 46 73" id="aX"/><path fill="#1071e5" d="M59-47c-2 24 18 29 38 22v24C64 9 27 4 27-40v-127H5v-23h24l9-43h21v43h35v23H59v120" id="aY"/><g id="k"><use transform="matrix(0.06172839506172839,0,0,0.06172839506172839,0,0)" xlink:href="#aX"/><use transform="matrix(0.06172839506172839,0,0,0.06172839506172839,12.345679012345679,0)" xlink:href="#aR"/><use transform="matrix(0.06172839506172839,0,0,0.06172839506172839,24.691358024691358,0)" xlink:href="#aY"/><use transform="matrix(0.06172839506172839,0,0,0.06172839506172839,30.864197530864196,0)" xlink:href="#aQ"/><use transform="matrix(0.06172839506172839,0,0,0.06172839506172839,43.20987654320987,0)" xlink:href="#aT"/><use transform="matrix(0.06172839506172839,0,0,0.06172839506172839,55.55555555555555,0)" xlink:href="#aS"/></g><path fill="#1071e5" d="M26 75v-336h71v23H56V52h41v23H26" id="aZ"/><path fill="#1071e5" d="M3 75V52h41v-290H3v-23h71V75H3" id="ba"/><g id="l"><use transform="matrix(0.06172839506172839,0,0,0.06172839506172839,0,0)" xlink:href="#aZ"/><use transform="matrix(0.06172839506172839,0,0,0.06172839506172839,6.172839506172839,0)" xlink:href="#ba"/></g><path fill="#1071e5" d="M76-40C78 24 84 88 6 75V52C86 64 9-79 80-94c-40-6-34-59-34-106 1-29-11-41-40-38v-23c44-4 70 10 70 52 0 47-12 108 38 105v22c-26 1-39 14-38 42" id="bb"/><use transform="matrix(0.06172839506172839,0,0,0.06172839506172839,0,0)" xlink:href="#bb" id="m"/><use transform="matrix(0.06172839506172839,0,0,0.06172839506172839,0,0)" xlink:href="#bb" id="n"/><path fill="#3a414a" d="M135-194c53 0 70 44 70 98 0 56-19 98-73 100-31 1-45-17-59-34 3 33 2 69 2 105H25l-1-265h48c2 10 0 23 3 31 11-24 29-35 60-35zM114-30c33 0 39-31 40-66 0-38-9-64-40-64-56 0-55 130 0 130" id="bc"/><path fill="#3a414a" d="M135-194c52 0 70 43 70 98 0 56-19 99-73 100-30 1-46-15-58-35L72 0H24l1-261h50v104c11-23 29-37 60-37zM114-30c31 0 40-27 40-66 0-37-7-63-39-63s-41 28-41 65c0 36 8 64 40 64" id="bd"/><g id="o"><use transform="matrix(0.06172839506172839,0,0,0.06172839506172839,0,0)" xlink:href="#bc"/><use transform="matrix(0.06172839506172839,0,0,0.06172839506172839,13.518518518518517,0)" xlink:href="#aG"/><use transform="matrix(0.06172839506172839,0,0,0.06172839506172839,22.160493827160494,0)" xlink:href="#aD"/><use transform="matrix(0.06172839506172839,0,0,0.06172839506172839,35.67901234567901,0)" xlink:href="#bd"/><use transform="matrix(0.06172839506172839,0,0,0.06172839506172839,49.19753086419753,0)" xlink:href="#aF"/></g><path fill="#1071e5" d="M115-194c55 1 70 41 70 98S169 2 115 4C84 4 66-9 55-30l1 105H24l-1-265h31l2 30c10-21 28-34 59-34zm-8 174c40 0 45-34 45-75s-6-73-45-74c-42 0-51 32-51 76 0 43 10 73 51 73" id="be"/><path fill="#1071e5" d="M100-194c62-1 85 37 85 99 1 63-27 99-86 99S16-35 15-95c0-66 28-99 85-99zM99-20c44 1 53-31 53-75 0-43-8-75-51-75s-53 32-53 75 10 74 51 75" id="bf"/><path fill="#1071e5" d="M115-194c53 0 69 39 70 98 0 66-23 100-70 100C84 3 66-7 56-30L54 0H23l1-261h32v101c10-23 28-34 59-34zm-8 174c40 0 45-34 45-75 0-40-5-75-45-74-42 0-51 32-51 76 0 43 10 73 51 73" id="bg"/><g id="p"><use transform="matrix(0.06172839506172839,0,0,0.06172839506172839,0,0)" xlink:href="#be"/><use transform="matrix(0.06172839506172839,0,0,0.06172839506172839,12.345679012345679,0)" xlink:href="#aS"/><use transform="matrix(0.06172839506172839,0,0,0.06172839506172839,19.691358024691358,0)" xlink:href="#bf"/><use transform="matrix(0.06172839506172839,0,0,0.06172839506172839,32.03703703703704,0)" xlink:href="#bg"/><use transform="matrix(0.06172839506172839,0,0,0.06172839506172839,44.382716049382715,0)" xlink:href="#aT"/></g><g id="q"><use transform="matrix(0.06172839506172839,0,0,0.06172839506172839,0,0)" xlink:href="#aZ"/><use transform="matrix(0.06172839506172839,0,0,0.06172839506172839,6.172839506172839,0)" xlink:href="#ba"/></g><path fill="#3a414a" d="M137-138c1-29-70-34-71-4 15 46 118 7 119 86 1 83-164 76-172 9l43-7c4 19 20 25 44 25 33 8 57-30 24-41C81-84 22-81 20-136c-2-80 154-74 161-7" id="bh"/><path fill="#3a414a" d="M123 10C108 53 80 86 19 72V37c35 8 53-11 59-39L3-190h52l48 148c12-52 28-100 44-148h51" id="bi"/><path fill="#3a414a" d="M220-157c-53 9-28 100-34 157h-49v-107c1-27-5-49-29-50C55-147 81-57 75 0H25l-1-190h47c2 12-1 28 3 38 10-53 101-56 108 0 13-22 24-43 59-42 82 1 51 116 57 194h-49v-107c-1-25-5-48-29-50" id="bj"/><g id="r"><use transform="matrix(0.06172839506172839,0,0,0.06172839506172839,0,0)" xlink:href="#aJ"/><use transform="matrix(0.06172839506172839,0,0,0.06172839506172839,13.518518518518517,0)" xlink:href="#aK"/><use transform="matrix(0.06172839506172839,0,0,0.06172839506172839,25.864197530864196,0)" xlink:href="#aL"/><use transform="matrix(0.06172839506172839,0,0,0.06172839506172839,33.20987654320987,0)" xlink:href="#aM"/><use transform="matrix(0.06172839506172839,0,0,0.06172839506172839,46.72839506172839,0)" xlink:href="#aF"/><use transform="matrix(0.06172839506172839,0,0,0.06172839506172839,59.07407407407407,0)" xlink:href="#aG"/><use transform="matrix(0.06172839506172839,0,0,0.06172839506172839,67.71604938271605,0)" xlink:href="#aN"/><use transform="matrix(0.06172839506172839,0,0,0.06172839506172839,80.06172839506173,0)" xlink:href="#bh"/><use transform="matrix(0.06172839506172839,0,0,0.06172839506172839,92.40740740740742,0)" xlink:href="#bi"/><use transform="matrix(0.06172839506172839,0,0,0.06172839506172839,104.7530864197531,0)" xlink:href="#bh"/><use transform="matrix(0.06172839506172839,0,0,0.06172839506172839,117.09876543209879,0)" xlink:href="#aL"/><use transform="matrix(0.06172839506172839,0,0,0.06172839506172839,124.44444444444447,0)" xlink:href="#aF"/><use transform="matrix(0.06172839506172839,0,0,0.06172839506172839,136.79012345679016,0)" xlink:href="#bj"/></g><path fill="#1071e5" d="M179-190L93 31C79 59 56 82 12 73V49c39 6 53-20 64-50L1-190h34L92-34l54-156h33" id="bk"/><path fill="#1071e5" d="M210-169c-67 3-38 105-44 169h-31v-121c0-29-5-50-35-48C34-165 62-65 56 0H25l-1-190h30c1 10-1 24 2 32 10-44 99-50 107 0 11-21 27-35 58-36 85-2 47 119 55 194h-31v-121c0-29-5-49-35-48" id="bl"/><g id="s"><use transform="matrix(0.06172839506172839,0,0,0.06172839506172839,0,0)" xlink:href="#aP"/><use transform="matrix(0.06172839506172839,0,0,0.06172839506172839,11.11111111111111,0)" xlink:href="#bk"/><use transform="matrix(0.06172839506172839,0,0,0.06172839506172839,22.22222222222222,0)" xlink:href="#aP"/><use transform="matrix(0.06172839506172839,0,0,0.06172839506172839,33.33333333333333,0)" xlink:href="#aY"/><use transform="matrix(0.06172839506172839,0,0,0.06172839506172839,39.50617283950617,0)" xlink:href="#aT"/><use transform="matrix(0.06172839506172839,0,0,0.06172839506172839,51.85185185185185,0)" xlink:href="#bl"/></g><path fill="#1071e5" d="M68-36c1 33-1 63-14 82H32c9-13 17-26 17-46H33v-36h35zM33-154v-36h35v36H33" id="bm"/><g id="t"><use transform="matrix(0.06172839506172839,0,0,0.06172839506172839,0,0)" xlink:href="#bb"/><use transform="matrix(0.06172839506172839,0,0,0.06172839506172839,7.4074074074074066,0)" xlink:href="#bm"/></g><g id="u"><use transform="matrix(0.06172839506172839,0,0,0.06172839506172839,0,0)" xlink:href="#aX"/><use transform="matrix(0.06172839506172839,0,0,0.06172839506172839,12.345679012345679,0)" xlink:href="#aR"/><use transform="matrix(0.06172839506172839,0,0,0.06172839506172839,24.691358024691358,0)" xlink:href="#aY"/><use transform="matrix(0.06172839506172839,0,0,0.06172839506172839,30.864197530864196,0)" xlink:href="#aQ"/><use transform="matrix(0.06172839506172839,0,0,0.06172839506172839,43.20987654320987,0)" xlink:href="#aT"/><use transform="matrix(0.06172839506172839,0,0,0.06172839506172839,55.55555555555555,0)" xlink:href="#aS"/></g><path fill="#3a414a" d="M231 0h-52l-39-155L100 0H48L-1-190h46L77-45c9-52 24-97 36-145h53l37 145 32-145h46" id="bn"/><path fill="#3a414a" d="M135-194c87-1 58 113 63 194h-50c-7-57 23-157-34-157-59 0-34 97-39 157H25l-1-190h47c2 12-1 28 3 38 12-26 28-41 61-42" id="bo"/><path fill="#3a414a" d="M25 0v-261h50V0H25" id="bp"/><g id="v"><use transform="matrix(0.06172839506172839,0,0,0.06172839506172839,0,0)" xlink:href="#aI"/><use transform="matrix(0.06172839506172839,0,0,0.06172839506172839,13.518518518518517,0)" xlink:href="#aD"/><use transform="matrix(0.06172839506172839,0,0,0.06172839506172839,27.037037037037035,0)" xlink:href="#bn"/><use transform="matrix(0.06172839506172839,0,0,0.06172839506172839,44.32098765432099,0)" xlink:href="#bo"/><use transform="matrix(0.06172839506172839,0,0,0.06172839506172839,57.839506172839506,0)" xlink:href="#bp"/><use transform="matrix(0.06172839506172839,0,0,0.06172839506172839,64.01234567901234,0)" xlink:href="#aD"/><use transform="matrix(0.06172839506172839,0,0,0.06172839506172839,77.53086419753086,0)" xlink:href="#aK"/><use transform="matrix(0.06172839506172839,0,0,0.06172839506172839,89.87654320987654,0)" xlink:href="#aI"/></g><path fill="#1071e5" d="M85-194c31 0 48 13 60 33l-1-100h32l1 261h-30c-2-10 0-23-3-31C134-8 116 4 85 4 32 4 16-35 15-94c0-66 23-100 70-100zm9 24c-40 0-46 34-46 75 0 40 6 74 45 74 42 0 51-32 51-76 0-42-9-74-50-73" id="bq"/><path fill="#1071e5" d="M206 0h-36l-40-164L89 0H53L-1-190h32L70-26l43-164h34l41 164 42-164h31" id="br"/><path fill="#1071e5" d="M117-194c89-4 53 116 60 194h-32v-121c0-31-8-49-39-48C34-167 62-67 57 0H25l-1-190h30c1 10-1 24 2 32 11-22 29-35 61-36" id="bs"/><path fill="#1071e5" d="M24 0v-261h32V0H24" id="bt"/><g id="w"><use transform="matrix(0.06172839506172839,0,0,0.06172839506172839,0,0)" xlink:href="#bq"/><use transform="matrix(0.06172839506172839,0,0,0.06172839506172839,12.345679012345679,0)" xlink:href="#bf"/><use transform="matrix(0.06172839506172839,0,0,0.06172839506172839,24.691358024691358,0)" xlink:href="#br"/><use transform="matrix(0.06172839506172839,0,0,0.06172839506172839,40.67901234567901,0)" xlink:href="#bs"/><use transform="matrix(0.06172839506172839,0,0,0.06172839506172839,53.02469135802469,0)" xlink:href="#bt"/><use transform="matrix(0.06172839506172839,0,0,0.06172839506172839,57.901234567901234,0)" xlink:href="#bf"/><use transform="matrix(0.06172839506172839,0,0,0.06172839506172839,70.24691358024691,0)" xlink:href="#aR"/><use transform="matrix(0.06172839506172839,0,0,0.06172839506172839,82.5925925925926,0)" xlink:href="#bq"/></g><path fill="#3a414a" d="M190-63c-7 42-38 67-86 67-59 0-84-38-90-98-12-110 154-137 174-36l-49 2c-2-19-15-32-35-32-30 0-35 28-38 64-6 74 65 87 74 30" id="bu"/><g id="x"><use transform="matrix(0.06172839506172839,0,0,0.06172839506172839,0,0)" xlink:href="#aI"/><use transform="matrix(0.06172839506172839,0,0,0.06172839506172839,13.518518518518517,0)" xlink:href="#aF"/><use transform="matrix(0.06172839506172839,0,0,0.06172839506172839,25.864197530864196,0)" xlink:href="#bu"/><use transform="matrix(0.06172839506172839,0,0,0.06172839506172839,38.20987654320987,0)" xlink:href="#aD"/><use transform="matrix(0.06172839506172839,0,0,0.06172839506172839,51.72839506172839,0)" xlink:href="#aI"/><use transform="matrix(0.06172839506172839,0,0,0.06172839506172839,65.24691358024691,0)" xlink:href="#aF"/></g><path fill="#1071e5" d="M96-169c-40 0-48 33-48 73s9 75 48 75c24 0 41-14 43-38l32 2c-6 37-31 61-74 61-59 0-76-41-82-99-10-93 101-131 147-64 4 7 5 14 7 22l-32 3c-4-21-16-35-41-35" id="bv"/><g id="y"><use transform="matrix(0.06172839506172839,0,0,0.06172839506172839,0,0)" xlink:href="#bq"/><use transform="matrix(0.06172839506172839,0,0,0.06172839506172839,12.345679012345679,0)" xlink:href="#aT"/><use transform="matrix(0.06172839506172839,0,0,0.06172839506172839,24.691358024691358,0)" xlink:href="#bv"/><use transform="matrix(0.06172839506172839,0,0,0.06172839506172839,35.80246913580247,0)" xlink:href="#bf"/><use transform="matrix(0.06172839506172839,0,0,0.06172839506172839,48.148148148148145,0)" xlink:href="#bq"/><use transform="matrix(0.06172839506172839,0,0,0.06172839506172839,60.49382716049382,0)" xlink:href="#aT"/></g><g id="z"><use transform="matrix(0.06172839506172839,0,0,0.06172839506172839,0,0)" xlink:href="#bc"/><use transform="matrix(0.06172839506172839,0,0,0.06172839506172839,13.518518518518517,0)" xlink:href="#aG"/><use transform="matrix(0.06172839506172839,0,0,0.06172839506172839,22.160493827160494,0)" xlink:href="#aF"/><use transform="matrix(0.06172839506172839,0,0,0.06172839506172839,34.50617283950617,0)" xlink:href="#aO"/><use transform="matrix(0.06172839506172839,0,0,0.06172839506172839,41.85185185185185,0)" xlink:href="#aF"/><use transform="matrix(0.06172839506172839,0,0,0.06172839506172839,54.197530864197525,0)" xlink:href="#aG"/></g><g id="A"><use transform="matrix(0.06172839506172839,0,0,0.06172839506172839,0,0)" xlink:href="#be"/><use transform="matrix(0.06172839506172839,0,0,0.06172839506172839,12.345679012345679,0)" xlink:href="#aS"/><use transform="matrix(0.06172839506172839,0,0,0.06172839506172839,19.691358024691358,0)" xlink:href="#aT"/><use transform="matrix(0.06172839506172839,0,0,0.06172839506172839,32.03703703703704,0)" xlink:href="#aV"/><use transform="matrix(0.06172839506172839,0,0,0.06172839506172839,38.20987654320988,0)" xlink:href="#aT"/><use transform="matrix(0.06172839506172839,0,0,0.06172839506172839,50.55555555555556,0)" xlink:href="#aS"/></g><path fill="#3a414a" d="M144 0l-44-69L55 0H2l70-98-66-92h53l41 62 40-62h54l-67 91 71 99h-54" id="bw"/><g id="B"><use transform="matrix(0.06172839506172839,0,0,0.06172839506172839,0,0)" xlink:href="#aF"/><use transform="matrix(0.06172839506172839,0,0,0.06172839506172839,12.345679012345679,0)" xlink:href="#bw"/><use transform="matrix(0.06172839506172839,0,0,0.06172839506172839,24.691358024691358,0)" xlink:href="#aL"/><use transform="matrix(0.06172839506172839,0,0,0.06172839506172839,32.03703703703704,0)" xlink:href="#aG"/><use transform="matrix(0.06172839506172839,0,0,0.06172839506172839,40.67901234567901,0)" xlink:href="#aK"/><use transform="matrix(0.06172839506172839,0,0,0.06172839506172839,53.02469135802469,0)" xlink:href="#bu"/><use transform="matrix(0.06172839506172839,0,0,0.06172839506172839,65.37037037037037,0)" xlink:href="#aL"/></g><path fill="#1071e5" d="M141 0L90-78 38 0H4l68-98-65-92h35l48 74 47-74h35l-64 92 68 98h-35" id="bx"/><g id="C"><use transform="matrix(0.06172839506172839,0,0,0.06172839506172839,0,0)" xlink:href="#aT"/><use transform="matrix(0.06172839506172839,0,0,0.06172839506172839,12.345679012345679,0)" xlink:href="#bx"/><use transform="matrix(0.06172839506172839,0,0,0.06172839506172839,23.45679012345679,0)" xlink:href="#aY"/><use transform="matrix(0.06172839506172839,0,0,0.06172839506172839,29.62962962962963,0)" xlink:href="#aS"/><use transform="matrix(0.06172839506172839,0,0,0.06172839506172839,36.97530864197531,0)" xlink:href="#aR"/><use transform="matrix(0.06172839506172839,0,0,0.06172839506172839,49.32098765432099,0)" xlink:href="#bv"/><use transform="matrix(0.06172839506172839,0,0,0.06172839506172839,60.4320987654321,0)" xlink:href="#aY"/></g><g id="D"><use transform="matrix(0.06172839506172839,0,0,0.06172839506172839,0,0)" xlink:href="#bc"/><use transform="matrix(0.06172839506172839,0,0,0.06172839506172839,13.518518518518517,0)" xlink:href="#aK"/><use transform="matrix(0.06172839506172839,0,0,0.06172839506172839,25.864197530864196,0)" xlink:href="#aL"/><use transform="matrix(0.06172839506172839,0,0,0.06172839506172839,33.20987654320987,0)" xlink:href="#bu"/><use transform="matrix(0.06172839506172839,0,0,0.06172839506172839,45.55555555555555,0)" xlink:href="#aM"/><use transform="matrix(0.06172839506172839,0,0,0.06172839506172839,59.07407407407407,0)" xlink:href="#aN"/><use transform="matrix(0.06172839506172839,0,0,0.06172839506172839,71.41975308641975,0)" xlink:href="#aO"/><use transform="matrix(0.06172839506172839,0,0,0.06172839506172839,78.76543209876543,0)" xlink:href="#aO"/><use transform="matrix(0.06172839506172839,0,0,0.06172839506172839,86.11111111111111,0)" xlink:href="#aH"/></g><g id="E"><use transform="matrix(0.06172839506172839,0,0,0.06172839506172839,0,0)" xlink:href="#be"/><use transform="matrix(0.06172839506172839,0,0,0.06172839506172839,12.345679012345679,0)" xlink:href="#aR"/><use transform="matrix(0.06172839506172839,0,0,0.06172839506172839,24.691358024691358,0)" xlink:href="#aY"/><use transform="matrix(0.06172839506172839,0,0,0.06172839506172839,30.864197530864196,0)" xlink:href="#bv"/><use transform="matrix(0.06172839506172839,0,0,0.06172839506172839,41.9753086419753,0)" xlink:href="#aQ"/></g><path fill="#3a414a" d="M85 4C-2 5 27-109 22-190h50c7 57-23 150 33 157 60-5 35-97 40-157h50l1 190h-47c-2-12 1-28-3-38-12 25-28 42-61 42" id="by"/><g id="F"><use transform="matrix(0.06172839506172839,0,0,0.06172839506172839,0,0)" xlink:href="#bd"/><use transform="matrix(0.06172839506172839,0,0,0.06172839506172839,13.518518518518517,0)" xlink:href="#by"/><use transform="matrix(0.06172839506172839,0,0,0.06172839506172839,27.037037037037035,0)" xlink:href="#aH"/><use transform="matrix(0.06172839506172839,0,0,0.06172839506172839,33.20987654320987,0)" xlink:href="#bp"/><use transform="matrix(0.06172839506172839,0,0,0.06172839506172839,39.382716049382715,0)" xlink:href="#aI"/><use transform="matrix(0.06172839506172839,0,0,0.06172839506172839,52.901234567901234,0)" xlink:href="#aN"/><use transform="matrix(0.06172839506172839,0,0,0.06172839506172839,65.24691358024691,0)" xlink:href="#aO"/><use transform="matrix(0.06172839506172839,0,0,0.06172839506172839,72.5925925925926,0)" xlink:href="#aO"/><use transform="matrix(0.06172839506172839,0,0,0.06172839506172839,79.93827160493828,0)" xlink:href="#aH"/></g><path fill="#1071e5" d="M84 4C-5 8 30-112 23-190h32v120c0 31 7 50 39 49 72-2 45-101 50-169h31l1 190h-30c-1-10 1-25-2-33-11 22-28 36-60 37" id="bz"/><g id="G"><use transform="matrix(0.06172839506172839,0,0,0.06172839506172839,0,0)" xlink:href="#bg"/><use transform="matrix(0.06172839506172839,0,0,0.06172839506172839,12.345679012345679,0)" xlink:href="#bz"/><use transform="matrix(0.06172839506172839,0,0,0.06172839506172839,24.691358024691358,0)" xlink:href="#aW"/><use transform="matrix(0.06172839506172839,0,0,0.06172839506172839,29.5679012345679,0)" xlink:href="#bt"/><use transform="matrix(0.06172839506172839,0,0,0.06172839506172839,34.44444444444444,0)" xlink:href="#bq"/></g><g id="H"><use transform="matrix(0.06172839506172839,0,0,0.06172839506172839,0,0)" xlink:href="#aD"/><use transform="matrix(0.06172839506172839,0,0,0.06172839506172839,13.518518518518517,0)" xlink:href="#aE"/><use transform="matrix(0.06172839506172839,0,0,0.06172839506172839,25.864197530864196,0)" xlink:href="#aF"/><use transform="matrix(0.06172839506172839,0,0,0.06172839506172839,38.20987654320987,0)" xlink:href="#aG"/><use transform="matrix(0.06172839506172839,0,0,0.06172839506172839,46.85185185185185,0)" xlink:href="#aG"/><use transform="matrix(0.06172839506172839,0,0,0.06172839506172839,55.49382716049382,0)" xlink:href="#aH"/><use transform="matrix(0.06172839506172839,0,0,0.06172839506172839,61.666666666666664,0)" xlink:href="#aI"/><use transform="matrix(0.06172839506172839,0,0,0.06172839506172839,75.18518518518518,0)" xlink:href="#aF"/></g><path fill="#3a414a" d="M114-163C36-179 61-72 57 0H25l-1-190h30c1 12-1 29 2 39 6-27 23-49 58-41v29" id="bA"/><path fill="#3a414a" d="M100-194c63 0 86 42 84 106H49c0 40 14 67 53 68 26 1 43-12 49-29l28 8c-11 28-37 45-77 45C44 4 14-33 15-96c1-61 26-98 85-98zm52 81c6-60-76-77-97-28-3 7-6 17-6 28h103" id="bB"/><path fill="#3a414a" d="M135-143c-3-34-86-38-87 0 15 53 115 12 119 90S17 21 10-45l28-5c4 36 97 45 98 0-10-56-113-15-118-90-4-57 82-63 122-42 12 7 21 19 24 35" id="bC"/><path fill="#3a414a" d="M84 4C-5 8 30-112 23-190h32v120c0 31 7 50 39 49 72-2 45-101 50-169h31l1 190h-30c-1-10 1-25-2-33-11 22-28 36-60 37" id="bD"/><path fill="#3a414a" d="M24 0v-261h32V0H24" id="bE"/><path fill="#3a414a" d="M59-47c-2 24 18 29 38 22v24C64 9 27 4 27-40v-127H5v-23h24l9-43h21v43h35v23H59v120" id="bF"/><g id="I"><use transform="matrix(0.06172839506172839,0,0,0.06172839506172839,0,0)" xlink:href="#bA"/><use transform="matrix(0.06172839506172839,0,0,0.06172839506172839,7.345679012345679,0)" xlink:href="#bB"/><use transform="matrix(0.06172839506172839,0,0,0.06172839506172839,19.691358024691358,0)" xlink:href="#bC"/><use transform="matrix(0.06172839506172839,0,0,0.06172839506172839,30.80246913580247,0)" xlink:href="#bD"/><use transform="matrix(0.06172839506172839,0,0,0.06172839506172839,43.148148148148145,0)" xlink:href="#bE"/><use transform="matrix(0.06172839506172839,0,0,0.06172839506172839,48.02469135802469,0)" xlink:href="#bF"/></g><path fill="#333" d="M88-194c31-1 46 15 58 34l-1-101h50l1 261h-48c-2-10 0-23-3-31C134-8 116 4 84 4 32 4 16-41 15-95c0-56 19-97 73-99zm17 164c33 0 40-30 41-66 1-37-9-64-41-64s-38 30-39 65c0 43 13 65 39 65" id="bG"/><path fill="#333" d="M185-48c-13 30-37 53-82 52C43 2 14-33 14-96s30-98 90-98c62 0 83 45 84 108H66c0 31 8 55 39 56 18 0 30-7 34-22zm-45-69c5-46-57-63-70-21-2 6-4 13-4 21h74" id="bH"/><path fill="#333" d="M121-226c-27-7-43 5-38 36h38v33H83V0H34v-157H6v-33h28c-9-59 32-81 87-68v32" id="bI"/><path fill="#333" d="M133-34C117-15 103 5 69 4 32 3 11-16 11-54c-1-60 55-63 116-61 1-26-3-47-28-47-18 1-26 9-28 27l-52-2c7-38 36-58 82-57s74 22 75 68l1 82c-1 14 12 18 25 15v27c-30 8-71 5-69-32zm-48 3c29 0 43-24 42-57-32 0-66-3-65 30 0 17 8 27 23 27" id="bJ"/><path fill="#333" d="M85 4C-2 5 27-109 22-190h50c7 57-23 150 33 157 60-5 35-97 40-157h50l1 190h-47c-2-12 1-28-3-38-12 25-28 42-61 42" id="bK"/><path fill="#333" d="M25 0v-261h50V0H25" id="bL"/><path fill="#333" d="M115-3C79 11 28 4 28-45v-112H4v-33h27l15-45h31v45h36v33H77v99c-1 23 16 31 38 25v30" id="bM"/><g id="J"><use transform="matrix(0.04938271604938272,0,0,0.04938271604938272,0,0)" xlink:href="#bG"/><use transform="matrix(0.04938271604938272,0,0,0.04938271604938272,10.814814814814815,0)" xlink:href="#bH"/><use transform="matrix(0.04938271604938272,0,0,0.04938271604938272,20.69135802469136,0)" xlink:href="#bI"/><use transform="matrix(0.04938271604938272,0,0,0.04938271604938272,26.567901234567902,0)" xlink:href="#bJ"/><use transform="matrix(0.04938271604938272,0,0,0.04938271604938272,36.44444444444445,0)" xlink:href="#bK"/><use transform="matrix(0.04938271604938272,0,0,0.04938271604938272,47.25925925925927,0)" xlink:href="#bL"/><use transform="matrix(0.04938271604938272,0,0,0.04938271604938272,52.19753086419754,0)" xlink:href="#bM"/></g><path fill="#3a414a" d="M115-194c55 1 70 41 70 98S169 2 115 4C84 4 66-9 55-30l1 105H24l-1-265h31l2 30c10-21 28-34 59-34zm-8 174c40 0 45-34 45-75s-6-73-45-74c-42 0-51 32-51 76 0 43 10 73 51 73" id="bN"/><path fill="#3a414a" d="M100-194c62-1 85 37 85 99 1 63-27 99-86 99S16-35 15-95c0-66 28-99 85-99zM99-20c44 1 53-31 53-75 0-43-8-75-51-75s-53 32-53 75 10 74 51 75" id="bO"/><path fill="#3a414a" d="M115-194c53 0 69 39 70 98 0 66-23 100-70 100C84 3 66-7 56-30L54 0H23l1-261h32v101c10-23 28-34 59-34zm-8 174c40 0 45-34 45-75 0-40-5-75-45-74-42 0-51 32-51 76 0 43 10 73 51 73" id="bP"/><g id="K"><use transform="matrix(0.06172839506172839,0,0,0.06172839506172839,0,0)" xlink:href="#bN"/><use transform="matrix(0.06172839506172839,0,0,0.06172839506172839,12.345679012345679,0)" xlink:href="#bA"/><use transform="matrix(0.06172839506172839,0,0,0.06172839506172839,19.691358024691358,0)" xlink:href="#bO"/><use transform="matrix(0.06172839506172839,0,0,0.06172839506172839,32.03703703703704,0)" xlink:href="#bP"/><use transform="matrix(0.06172839506172839,0,0,0.06172839506172839,44.382716049382715,0)" xlink:href="#bB"/></g><g id="L"><use transform="matrix(0.06172839506172839,0,0,0.06172839506172839,0,0)" xlink:href="#aG"/><use transform="matrix(0.06172839506172839,0,0,0.06172839506172839,8.641975308641975,0)" xlink:href="#aF"/><use transform="matrix(0.06172839506172839,0,0,0.06172839506172839,20.98765432098765,0)" xlink:href="#bh"/><use transform="matrix(0.06172839506172839,0,0,0.06172839506172839,33.33333333333333,0)" xlink:href="#by"/><use transform="matrix(0.06172839506172839,0,0,0.06172839506172839,46.85185185185185,0)" xlink:href="#bp"/><use transform="matrix(0.06172839506172839,0,0,0.06172839506172839,53.02469135802469,0)" xlink:href="#aL"/></g><path fill="#3a414a" d="M76-208v77h127v40H76V0H24v-248h183v40H76" id="bQ"/><path fill="#3a414a" d="M33-154v-36h34v36H33zM33 0v-36h34V0H33" id="bR"/><g id="M"><use transform="matrix(0.06172839506172839,0,0,0.06172839506172839,0,0)" xlink:href="#bQ"/><use transform="matrix(0.06172839506172839,0,0,0.06172839506172839,13.518518518518517,0)" xlink:href="#aK"/><use transform="matrix(0.06172839506172839,0,0,0.06172839506172839,25.864197530864196,0)" xlink:href="#aH"/><use transform="matrix(0.06172839506172839,0,0,0.06172839506172839,32.03703703703704,0)" xlink:href="#bp"/><use transform="matrix(0.06172839506172839,0,0,0.06172839506172839,38.20987654320988,0)" xlink:href="#bR"/></g><path fill="#3a414a" d="M96-169c-40 0-48 33-48 73s9 75 48 75c24 0 41-14 43-38l32 2c-6 37-31 61-74 61-59 0-76-41-82-99-10-93 101-131 147-64 4 7 5 14 7 22l-32 3c-4-21-16-35-41-35" id="bS"/><path fill="#3a414a" d="M141-36C126-15 110 5 73 4 37 3 15-17 15-53c-1-64 63-63 125-63 3-35-9-54-41-54-24 1-41 7-42 31l-33-3c5-37 33-52 76-52 45 0 72 20 72 64v82c-1 20 7 32 28 27v20c-31 9-61-2-59-35zM48-53c0 20 12 33 32 33 41-3 63-29 60-74-43 2-92-5-92 41" id="bT"/><path fill="#3a414a" d="M117-194c89-4 53 116 60 194h-32v-121c0-31-8-49-39-48C34-167 62-67 57 0H25l-1-190h30c1 10-1 24 2 32 11-22 29-35 61-36" id="bU"/><g id="N"><use transform="matrix(0.06172839506172839,0,0,0.06172839506172839,0,0)" xlink:href="#bS"/><use transform="matrix(0.06172839506172839,0,0,0.06172839506172839,11.11111111111111,0)" xlink:href="#bT"/><use transform="matrix(0.06172839506172839,0,0,0.06172839506172839,23.45679012345679,0)" xlink:href="#bU"/><use transform="matrix(0.06172839506172839,0,0,0.06172839506172839,35.80246913580247,0)" xlink:href="#bU"/><use transform="matrix(0.06172839506172839,0,0,0.06172839506172839,48.148148148148145,0)" xlink:href="#bO"/><use transform="matrix(0.06172839506172839,0,0,0.06172839506172839,60.49382716049382,0)" xlink:href="#bF"/></g><path fill="#3a414a" d="M85-194c31 0 48 13 60 33l-1-100h32l1 261h-30c-2-10 0-23-3-31C134-8 116 4 85 4 32 4 16-35 15-94c0-66 23-100 70-100zm9 24c-40 0-46 34-46 75 0 40 6 74 45 74 42 0 51-32 51-76 0-42-9-74-50-73" id="bV"/><g id="O"><use transform="matrix(0.06172839506172839,0,0,0.06172839506172839,0,0)" xlink:href="#bV"/><use transform="matrix(0.06172839506172839,0,0,0.06172839506172839,12.345679012345679,0)" xlink:href="#bO"/></g><path fill="#3a414a" d="M179-190L93 31C79 59 56 82 12 73V49c39 6 53-20 64-50L1-190h34L92-34l54-156h33" id="bW"/><path fill="#3a414a" d="M210-169c-67 3-38 105-44 169h-31v-121c0-29-5-50-35-48C34-165 62-65 56 0H25l-1-190h30c1 10-1 24 2 32 10-44 99-50 107 0 11-21 27-35 58-36 85-2 47 119 55 194h-31v-121c0-29-5-49-35-48" id="bX"/><g id="P"><use transform="matrix(0.06172839506172839,0,0,0.06172839506172839,0,0)" xlink:href="#bC"/><use transform="matrix(0.06172839506172839,0,0,0.06172839506172839,11.11111111111111,0)" xlink:href="#bW"/><use transform="matrix(0.06172839506172839,0,0,0.06172839506172839,22.22222222222222,0)" xlink:href="#bC"/><use transform="matrix(0.06172839506172839,0,0,0.06172839506172839,33.33333333333333,0)" xlink:href="#bF"/><use transform="matrix(0.06172839506172839,0,0,0.06172839506172839,39.50617283950617,0)" xlink:href="#bB"/><use transform="matrix(0.06172839506172839,0,0,0.06172839506172839,51.85185185185185,0)" xlink:href="#bX"/></g><path fill="#3a414a" d="M24-231v-30h32v30H24zM24 0v-190h32V0H24" id="bY"/><g id="Q"><use transform="matrix(0.06172839506172839,0,0,0.06172839506172839,0,0)" xlink:href="#bY"/><use transform="matrix(0.06172839506172839,0,0,0.06172839506172839,4.876543209876543,0)" xlink:href="#bU"/><use transform="matrix(0.06172839506172839,0,0,0.06172839506172839,17.22222222222222,0)" xlink:href="#bC"/><use transform="matrix(0.06172839506172839,0,0,0.06172839506172839,28.333333333333332,0)" xlink:href="#bF"/><use transform="matrix(0.06172839506172839,0,0,0.06172839506172839,34.50617283950617,0)" xlink:href="#bT"/><use transform="matrix(0.06172839506172839,0,0,0.06172839506172839,46.85185185185185,0)" xlink:href="#bE"/><use transform="matrix(0.06172839506172839,0,0,0.06172839506172839,51.72839506172839,0)" xlink:href="#bE"/></g><path fill="#333" d="M137-138c1-29-70-34-71-4 15 46 118 7 119 86 1 83-164 76-172 9l43-7c4 19 20 25 44 25 33 8 57-30 24-41C81-84 22-81 20-136c-2-80 154-74 161-7" id="bZ"/><path fill="#333" d="M123 10C108 53 80 86 19 72V37c35 8 53-11 59-39L3-190h52l48 148c12-52 28-100 44-148h51" id="ca"/><path fill="#333" d="M220-157c-53 9-28 100-34 157h-49v-107c1-27-5-49-29-50C55-147 81-57 75 0H25l-1-190h47c2 12-1 28 3 38 10-53 101-56 108 0 13-22 24-43 59-42 82 1 51 116 57 194h-49v-107c-1-25-5-48-29-50" id="cb"/><g id="R"><use transform="matrix(0.04938271604938272,0,0,0.04938271604938272,0,0)" xlink:href="#bZ"/><use transform="matrix(0.04938271604938272,0,0,0.04938271604938272,9.876543209876544,0)" xlink:href="#ca"/><use transform="matrix(0.04938271604938272,0,0,0.04938271604938272,19.75308641975309,0)" xlink:href="#bZ"/><use transform="matrix(0.04938271604938272,0,0,0.04938271604938272,29.629629629629633,0)" xlink:href="#bM"/><use transform="matrix(0.04938271604938272,0,0,0.04938271604938272,35.50617283950618,0)" xlink:href="#bH"/><use transform="matrix(0.04938271604938272,0,0,0.04938271604938272,45.38271604938272,0)" xlink:href="#cb"/></g><path fill="#333" d="M114-157C55-157 80-60 75 0H25v-261h50l-1 109c12-26 28-41 61-42 86-1 58 113 63 194h-50c-7-57 23-157-34-157" id="cc"/><path fill="#333" d="M135-150c-39-12-60 13-60 57V0H25l-1-190h47c2 13-1 29 3 40 6-28 27-53 61-41v41" id="cd"/><g id="S"><use transform="matrix(0.04938271604938272,0,0,0.04938271604938272,0,0)" xlink:href="#bZ"/><use transform="matrix(0.04938271604938272,0,0,0.04938271604938272,9.876543209876544,0)" xlink:href="#cc"/><use transform="matrix(0.04938271604938272,0,0,0.04938271604938272,20.69135802469136,0)" xlink:href="#bJ"/><use transform="matrix(0.04938271604938272,0,0,0.04938271604938272,30.567901234567906,0)" xlink:href="#cd"/><use transform="matrix(0.04938271604938272,0,0,0.04938271604938272,37.48148148148149,0)" xlink:href="#bH"/></g><path fill="#3a414a" d="M169-182c-1-43-94-46-97-3 18 66 151 10 154 114 3 95-165 93-204 36-6-8-10-19-12-30l50-8c3 46 112 56 116 5-17-69-150-10-154-114-4-87 153-88 188-35 5 8 8 18 10 28" id="ce"/><g id="T"><use transform="matrix(0.06172839506172839,0,0,0.06172839506172839,0,0)" xlink:href="#ce"/><use transform="matrix(0.06172839506172839,0,0,0.06172839506172839,14.814814814814813,0)" xlink:href="#by"/><use transform="matrix(0.06172839506172839,0,0,0.06172839506172839,28.33333333333333,0)" xlink:href="#bu"/><use transform="matrix(0.06172839506172839,0,0,0.06172839506172839,40.679012345679006,0)" xlink:href="#bu"/><use transform="matrix(0.06172839506172839,0,0,0.06172839506172839,53.02469135802468,0)" xlink:href="#aF"/><use transform="matrix(0.06172839506172839,0,0,0.06172839506172839,65.37037037037037,0)" xlink:href="#bh"/><use transform="matrix(0.06172839506172839,0,0,0.06172839506172839,77.71604938271605,0)" xlink:href="#bh"/><use transform="matrix(0.06172839506172839,0,0,0.06172839506172839,90.06172839506173,0)" xlink:href="#bR"/></g><g id="U"><use transform="matrix(0.06172839506172839,0,0,0.06172839506172839,0,0)" xlink:href="#aO"/><use transform="matrix(0.06172839506172839,0,0,0.06172839506172839,7.345679012345679,0)" xlink:href="#aF"/><use transform="matrix(0.06172839506172839,0,0,0.06172839506172839,19.691358024691358,0)" xlink:href="#aL"/><use transform="matrix(0.06172839506172839,0,0,0.06172839506172839,27.037037037037038,0)" xlink:href="#bu"/><use transform="matrix(0.06172839506172839,0,0,0.06172839506172839,39.382716049382715,0)" xlink:href="#aM"/></g><g id="V"><use transform="matrix(0.06172839506172839,0,0,0.06172839506172839,0,0)" xlink:href="#aV"/><use transform="matrix(0.06172839506172839,0,0,0.06172839506172839,6.172839506172839,0)" xlink:href="#aT"/><use transform="matrix(0.06172839506172839,0,0,0.06172839506172839,18.51851851851852,0)" xlink:href="#aY"/><use transform="matrix(0.06172839506172839,0,0,0.06172839506172839,24.691358024691358,0)" xlink:href="#bv"/><use transform="matrix(0.06172839506172839,0,0,0.06172839506172839,35.80246913580247,0)" xlink:href="#aQ"/></g><path fill="#3a414a" d="M30-248c118-7 216 8 213 122C240-48 200 0 122 0H30v-248zM63-27c89 8 146-16 146-99s-60-101-146-95v194" id="cf"/><path fill="#3a414a" d="M206 0h-36l-40-164L89 0H53L-1-190h32L70-26l43-164h34l41 164 42-164h31" id="cg"/><g id="W"><use transform="matrix(0.06172839506172839,0,0,0.06172839506172839,0,0)" xlink:href="#cf"/><use transform="matrix(0.06172839506172839,0,0,0.06172839506172839,15.987654320987653,0)" xlink:href="#bO"/><use transform="matrix(0.06172839506172839,0,0,0.06172839506172839,28.333333333333332,0)" xlink:href="#cg"/><use transform="matrix(0.06172839506172839,0,0,0.06172839506172839,44.32098765432099,0)" xlink:href="#bU"/><use transform="matrix(0.06172839506172839,0,0,0.06172839506172839,56.666666666666664,0)" xlink:href="#bE"/><use transform="matrix(0.06172839506172839,0,0,0.06172839506172839,61.54320987654321,0)" xlink:href="#bO"/><use transform="matrix(0.06172839506172839,0,0,0.06172839506172839,73.88888888888889,0)" xlink:href="#bT"/><use transform="matrix(0.06172839506172839,0,0,0.06172839506172839,86.23456790123457,0)" xlink:href="#bV"/></g><g id="X"><use transform="matrix(0.06172839506172839,0,0,0.06172839506172839,0,0)" xlink:href="#bS"/><use transform="matrix(0.06172839506172839,0,0,0.06172839506172839,11.11111111111111,0)" xlink:href="#bT"/><use transform="matrix(0.06172839506172839,0,0,0.06172839506172839,23.45679012345679,0)" xlink:href="#bE"/><use transform="matrix(0.06172839506172839,0,0,0.06172839506172839,28.333333333333336,0)" xlink:href="#bE"/><use transform="matrix(0.06172839506172839,0,0,0.06172839506172839,33.20987654320988,0)" xlink:href="#bC"/></g><path fill="#3a414a" d="M103-251c84 0 111 97 45 133-19 10-37 24-39 52H78c0-63 77-55 77-114 0-30-21-42-52-43-32 0-53 17-56 46l-32-2c7-45 34-72 88-72zM77 0v-35h34V0H77" id="ch"/><g id="Y"><use transform="matrix(0.06172839506172839,0,0,0.06172839506172839,0,0)" xlink:href="#aO"/><use transform="matrix(0.06172839506172839,0,0,0.06172839506172839,7.345679012345679,0)" xlink:href="#aF"/><use transform="matrix(0.06172839506172839,0,0,0.06172839506172839,19.691358024691358,0)" xlink:href="#aL"/><use transform="matrix(0.06172839506172839,0,0,0.06172839506172839,27.037037037037038,0)" xlink:href="#bu"/><use transform="matrix(0.06172839506172839,0,0,0.06172839506172839,39.382716049382715,0)" xlink:href="#aM"/><use transform="matrix(0.06172839506172839,0,0,0.06172839506172839,52.901234567901234,0)" xlink:href="#ch"/></g><path fill="#333" d="M146-102V0H94v-102L6-248h54l60 105 60-105h54" id="ci"/><g id="Z"><use transform="matrix(0.04938271604938272,0,0,0.04938271604938272,0,0)" xlink:href="#ci"/><use transform="matrix(0.04938271604938272,0,0,0.04938271604938272,10.864197530864198,0)" xlink:href="#bH"/><use transform="matrix(0.04938271604938272,0,0,0.04938271604938272,20.74074074074074,0)" xlink:href="#bZ"/></g><path fill="#3a414a" d="M33 0v-248h34V0H33" id="cj"/><g id="aa"><use transform="matrix(0.06172839506172839,0,0,0.06172839506172839,0,0)" xlink:href="#cj"/><use transform="matrix(0.06172839506172839,0,0,0.06172839506172839,6.172839506172839,0)" xlink:href="#bU"/><use transform="matrix(0.06172839506172839,0,0,0.06172839506172839,18.51851851851852,0)" xlink:href="#bF"/><use transform="matrix(0.06172839506172839,0,0,0.06172839506172839,24.691358024691358,0)" xlink:href="#bB"/><use transform="matrix(0.06172839506172839,0,0,0.06172839506172839,37.03703703703704,0)" xlink:href="#bA"/><use transform="matrix(0.06172839506172839,0,0,0.06172839506172839,44.382716049382715,0)" xlink:href="#bU"/><use transform="matrix(0.06172839506172839,0,0,0.06172839506172839,56.72839506172839,0)" xlink:href="#bB"/><use transform="matrix(0.06172839506172839,0,0,0.06172839506172839,69.07407407407408,0)" xlink:href="#bF"/></g><path fill="#3a414a" d="M212-179c-10-28-35-45-73-45-59 0-87 40-87 99 0 60 29 101 89 101 43 0 62-24 78-52l27 14C228-24 195 4 139 4 59 4 22-46 18-125c-6-104 99-153 187-111 19 9 31 26 39 46" id="ck"/><g id="ab"><use transform="matrix(0.06172839506172839,0,0,0.06172839506172839,0,0)" xlink:href="#ck"/><use transform="matrix(0.06172839506172839,0,0,0.06172839506172839,15.987654320987653,0)" xlink:href="#bO"/><use transform="matrix(0.06172839506172839,0,0,0.06172839506172839,28.333333333333332,0)" xlink:href="#bU"/><use transform="matrix(0.06172839506172839,0,0,0.06172839506172839,40.67901234567901,0)" xlink:href="#bF"/><use transform="matrix(0.06172839506172839,0,0,0.06172839506172839,46.851851851851855,0)" xlink:href="#bB"/><use transform="matrix(0.06172839506172839,0,0,0.06172839506172839,59.19753086419753,0)" xlink:href="#bU"/><use transform="matrix(0.06172839506172839,0,0,0.06172839506172839,71.54320987654322,0)" xlink:href="#bF"/></g><path fill="#3a414a" d="M127-220V0H93v-220H8v-28h204v28h-85" id="cl"/><g id="ac"><use transform="matrix(0.06172839506172839,0,0,0.06172839506172839,0,0)" xlink:href="#cl"/><use transform="matrix(0.06172839506172839,0,0,0.06172839506172839,12.28395061728395,0)" xlink:href="#bW"/><use transform="matrix(0.06172839506172839,0,0,0.06172839506172839,23.39506172839506,0)" xlink:href="#bN"/><use transform="matrix(0.06172839506172839,0,0,0.06172839506172839,35.74074074074074,0)" xlink:href="#bB"/></g><g id="ad"><use transform="matrix(0.06172839506172839,0,0,0.06172839506172839,0,0)" xlink:href="#cj"/><use transform="matrix(0.06172839506172839,0,0,0.06172839506172839,6.172839506172839,0)" xlink:href="#bU"/><use transform="matrix(0.06172839506172839,0,0,0.06172839506172839,18.51851851851852,0)" xlink:href="#bF"/><use transform="matrix(0.06172839506172839,0,0,0.06172839506172839,24.691358024691358,0)" xlink:href="#bB"/><use transform="matrix(0.06172839506172839,0,0,0.06172839506172839,37.03703703703704,0)" xlink:href="#bA"/><use transform="matrix(0.06172839506172839,0,0,0.06172839506172839,44.382716049382715,0)" xlink:href="#bU"/><use transform="matrix(0.06172839506172839,0,0,0.06172839506172839,56.72839506172839,0)" xlink:href="#bB"/><use transform="matrix(0.06172839506172839,0,0,0.06172839506172839,69.07407407407408,0)" xlink:href="#bF"/></g><g id="ae"><use transform="matrix(0.06172839506172839,0,0,0.06172839506172839,0,0)" xlink:href="#ck"/><use transform="matrix(0.06172839506172839,0,0,0.06172839506172839,15.987654320987653,0)" xlink:href="#bO"/><use transform="matrix(0.06172839506172839,0,0,0.06172839506172839,28.333333333333332,0)" xlink:href="#bU"/><use transform="matrix(0.06172839506172839,0,0,0.06172839506172839,40.67901234567901,0)" xlink:href="#bF"/><use transform="matrix(0.06172839506172839,0,0,0.06172839506172839,46.851851851851855,0)" xlink:href="#bB"/><use transform="matrix(0.06172839506172839,0,0,0.06172839506172839,59.19753086419753,0)" xlink:href="#bU"/><use transform="matrix(0.06172839506172839,0,0,0.06172839506172839,71.54320987654322,0)" xlink:href="#bF"/></g><path fill="#333" d="M24-248c120-7 223 5 221 122C244-46 201 0 124 0H24v-248zM76-40c74 7 117-18 117-86 0-67-45-88-117-82v168" id="cm"/><path fill="#333" d="M25-224v-37h50v37H25zM25 0v-190h50V0H25" id="cn"/><path fill="#333" d="M190-63c-7 42-38 67-86 67-59 0-84-38-90-98-12-110 154-137 174-36l-49 2c-2-19-15-32-35-32-30 0-35 28-38 64-6 74 65 87 74 30" id="co"/><path fill="#333" d="M110-194c64 0 96 36 96 99 0 64-35 99-97 99-61 0-95-36-95-99 0-62 34-99 96-99zm-1 164c35 0 45-28 45-65 0-40-10-65-43-65-34 0-45 26-45 65 0 36 10 65 43 65" id="cp"/><g id="af"><use transform="matrix(0.04938271604938272,0,0,0.04938271604938272,0,0)" xlink:href="#cm"/><use transform="matrix(0.04938271604938272,0,0,0.04938271604938272,12.790123456790125,0)" xlink:href="#cn"/><use transform="matrix(0.04938271604938272,0,0,0.04938271604938272,17.7283950617284,0)" xlink:href="#cd"/><use transform="matrix(0.04938271604938272,0,0,0.04938271604938272,24.64197530864198,0)" xlink:href="#bH"/><use transform="matrix(0.04938271604938272,0,0,0.04938271604938272,34.518518518518526,0)" xlink:href="#co"/><use transform="matrix(0.04938271604938272,0,0,0.04938271604938272,44.39506172839507,0)" xlink:href="#bM"/><use transform="matrix(0.04938271604938272,0,0,0.04938271604938272,50.271604938271615,0)" xlink:href="#cp"/><use transform="matrix(0.04938271604938272,0,0,0.04938271604938272,61.08641975308644,0)" xlink:href="#cd"/><use transform="matrix(0.04938271604938272,0,0,0.04938271604938272,68.00000000000001,0)" xlink:href="#ca"/></g><path fill="#333" d="M76-208v77h127v40H76V0H24v-248h183v40H76" id="cq"/><g id="ag"><use transform="matrix(0.04938271604938272,0,0,0.04938271604938272,0,0)" xlink:href="#cq"/><use transform="matrix(0.04938271604938272,0,0,0.04938271604938272,10.814814814814815,0)" xlink:href="#cn"/><use transform="matrix(0.04938271604938272,0,0,0.04938271604938272,15.753086419753087,0)" xlink:href="#bL"/><use transform="matrix(0.04938271604938272,0,0,0.04938271604938272,20.69135802469136,0)" xlink:href="#bH"/></g><g id="ah"><use transform="matrix(0.06172839506172839,0,0,0.06172839506172839,0,0)" xlink:href="#aJ"/><use transform="matrix(0.06172839506172839,0,0,0.06172839506172839,13.518518518518517,0)" xlink:href="#aK"/><use transform="matrix(0.06172839506172839,0,0,0.06172839506172839,25.864197530864196,0)" xlink:href="#aL"/><use transform="matrix(0.06172839506172839,0,0,0.06172839506172839,33.20987654320987,0)" xlink:href="#aM"/><use transform="matrix(0.06172839506172839,0,0,0.06172839506172839,46.72839506172839,0)" xlink:href="#aF"/><use transform="matrix(0.06172839506172839,0,0,0.06172839506172839,59.07407407407407,0)" xlink:href="#aG"/><use transform="matrix(0.06172839506172839,0,0,0.06172839506172839,67.71604938271605,0)" xlink:href="#aN"/><use transform="matrix(0.06172839506172839,0,0,0.06172839506172839,80.06172839506173,0)" xlink:href="#bh"/><use transform="matrix(0.06172839506172839,0,0,0.06172839506172839,92.40740740740742,0)" xlink:href="#aM"/><use transform="matrix(0.06172839506172839,0,0,0.06172839506172839,105.92592592592594,0)" xlink:href="#aK"/><use transform="matrix(0.06172839506172839,0,0,0.06172839506172839,118.27160493827162,0)" xlink:href="#aG"/><use transform="matrix(0.06172839506172839,0,0,0.06172839506172839,126.9135802469136,0)" xlink:href="#aF"/></g><g id="ai"><use transform="matrix(0.06172839506172839,0,0,0.06172839506172839,0,0)" xlink:href="#bc"/><use transform="matrix(0.06172839506172839,0,0,0.06172839506172839,13.518518518518517,0)" xlink:href="#aK"/><use transform="matrix(0.06172839506172839,0,0,0.06172839506172839,25.864197530864196,0)" xlink:href="#aL"/><use transform="matrix(0.06172839506172839,0,0,0.06172839506172839,33.20987654320987,0)" xlink:href="#bu"/><use transform="matrix(0.06172839506172839,0,0,0.06172839506172839,45.55555555555555,0)" xlink:href="#aM"/></g><g id="aj"><use transform="matrix(0.06172839506172839,0,0,0.06172839506172839,0,0)" xlink:href="#bd"/><use transform="matrix(0.06172839506172839,0,0,0.06172839506172839,13.518518518518517,0)" xlink:href="#by"/><use transform="matrix(0.06172839506172839,0,0,0.06172839506172839,27.037037037037035,0)" xlink:href="#aH"/><use transform="matrix(0.06172839506172839,0,0,0.06172839506172839,33.20987654320987,0)" xlink:href="#bp"/><use transform="matrix(0.06172839506172839,0,0,0.06172839506172839,39.382716049382715,0)" xlink:href="#aI"/></g><g id="ak"><use transform="matrix(0.06172839506172839,0,0,0.06172839506172839,0,0)" xlink:href="#aF"/><use transform="matrix(0.06172839506172839,0,0,0.06172839506172839,12.345679012345679,0)" xlink:href="#bw"/><use transform="matrix(0.06172839506172839,0,0,0.06172839506172839,24.691358024691358,0)" xlink:href="#aL"/><use transform="matrix(0.06172839506172839,0,0,0.06172839506172839,32.03703703703704,0)" xlink:href="#aG"/><use transform="matrix(0.06172839506172839,0,0,0.06172839506172839,40.67901234567901,0)" xlink:href="#aK"/><use transform="matrix(0.06172839506172839,0,0,0.06172839506172839,53.02469135802469,0)" xlink:href="#bu"/><use transform="matrix(0.06172839506172839,0,0,0.06172839506172839,65.37037037037037,0)" xlink:href="#aL"/></g><path d="M87 75C49 33 22-17 22-94c0-76 28-126 65-167h31c-38 41-64 92-64 168S80 34 118 75H87" id="cr"/><path d="M141-36C126-15 110 5 73 4 37 3 15-17 15-53c-1-64 63-63 125-63 3-35-9-54-41-54-24 1-41 7-42 31l-33-3c5-37 33-52 76-52 45 0 72 20 72 64v82c-1 20 7 32 28 27v20c-31 9-61-2-59-35zM48-53c0 20 12 33 32 33 41-3 63-29 60-74-43 2-92-5-92 41" id="cs"/><path d="M177-190C167-65 218 103 67 71c-23-6-38-20-44-43l32-5c15 47 100 32 89-28v-30C133-14 115 1 83 1 29 1 15-40 15-95c0-56 16-97 71-98 29-1 48 16 59 35 1-10 0-23 2-32h30zM94-22c36 0 50-32 50-73 0-42-14-75-50-75-39 0-46 34-46 75s6 73 46 73" id="ct"/><path d="M24-231v-30h32v30H24zM24 0v-190h32V0H24" id="cu"/><path d="M117-194c89-4 53 116 60 194h-32v-121c0-31-8-49-39-48C34-167 62-67 57 0H25l-1-190h30c1 10-1 24 2 32 11-22 29-35 61-36" id="cv"/><path d="M33-261c38 41 65 92 65 168S71 34 33 75H2C39 34 66-17 66-93S39-220 2-261h31" id="cw"/><g id="al"><use transform="matrix(0.05925925925925927,0,0,0.05925925925925927,0,0)" xlink:href="#cr"/><use transform="matrix(0.05925925925925927,0,0,0.05925925925925927,7.051851851851853,0)" xlink:href="#cs"/><use transform="matrix(0.05925925925925927,0,0,0.05925925925925927,18.903703703703705,0)" xlink:href="#ct"/><use transform="matrix(0.05925925925925927,0,0,0.05925925925925927,30.75555555555556,0)" xlink:href="#cs"/><use transform="matrix(0.05925925925925927,0,0,0.05925925925925927,42.607407407407415,0)" xlink:href="#cu"/><use transform="matrix(0.05925925925925927,0,0,0.05925925925925927,47.2888888888889,0)" xlink:href="#cv"/><use transform="matrix(0.05925925925925927,0,0,0.05925925925925927,59.14074074074075,0)" xlink:href="#cw"/></g><path fill="#3a414a" d="M185-189c-5-48-123-54-124 2 14 75 158 14 163 119 3 78-121 87-175 55-17-10-28-26-33-46l33-7c5 56 141 63 141-1 0-78-155-14-162-118-5-82 145-84 179-34 5 7 8 16 11 25" id="cx"/><g id="am"><use transform="matrix(0.06172839506172839,0,0,0.06172839506172839,0,0)" xlink:href="#cx"/><use transform="matrix(0.06172839506172839,0,0,0.06172839506172839,14.814814814814813,0)" xlink:href="#bB"/><use transform="matrix(0.06172839506172839,0,0,0.06172839506172839,27.160493827160494,0)" xlink:href="#bN"/><use transform="matrix(0.06172839506172839,0,0,0.06172839506172839,39.50617283950617,0)" xlink:href="#bT"/><use transform="matrix(0.06172839506172839,0,0,0.06172839506172839,51.85185185185185,0)" xlink:href="#bA"/><use transform="matrix(0.06172839506172839,0,0,0.06172839506172839,59.197530864197525,0)" xlink:href="#bT"/><use transform="matrix(0.06172839506172839,0,0,0.06172839506172839,71.5432098765432,0)" xlink:href="#bF"/><use transform="matrix(0.06172839506172839,0,0,0.06172839506172839,77.71604938271604,0)" xlink:href="#bB"/></g><path fill="#3a414a" d="M24 0v-248h52V0H24" id="cy"/><g id="an"><use transform="matrix(0.06172839506172839,0,0,0.06172839506172839,0,0)" xlink:href="#bQ"/><use transform="matrix(0.06172839506172839,0,0,0.06172839506172839,13.518518518518517,0)" xlink:href="#bQ"/><use transform="matrix(0.06172839506172839,0,0,0.06172839506172839,27.037037037037035,0)" xlink:href="#cy"/></g><path fill="#3a414a" d="M160-131c35 5 61 23 61 61C221 17 115-2 30 0v-248c76 3 177-17 177 60 0 33-19 50-47 57zm-97-11c50-1 110 9 110-42 0-47-63-36-110-37v79zm0 115c55-2 124 14 124-45 0-56-70-42-124-44v89" id="cz"/><g id="ao"><use transform="matrix(0.06172839506172839,0,0,0.06172839506172839,0,0)" xlink:href="#cz"/><use transform="matrix(0.06172839506172839,0,0,0.06172839506172839,14.814814814814813,0)" xlink:href="#bD"/><use transform="matrix(0.06172839506172839,0,0,0.06172839506172839,27.160493827160494,0)" xlink:href="#bY"/><use transform="matrix(0.06172839506172839,0,0,0.06172839506172839,32.03703703703704,0)" xlink:href="#bE"/><use transform="matrix(0.06172839506172839,0,0,0.06172839506172839,36.91358024691358,0)" xlink:href="#bV"/><use transform="matrix(0.06172839506172839,0,0,0.06172839506172839,49.25925925925926,0)" xlink:href="#ch"/></g><path fill="#3a414a" d="M106-169C34-169 62-67 57 0H25v-261h32l-1 103c12-21 28-36 61-36 89 0 53 116 60 194h-32v-121c2-32-8-49-39-48" id="cA"/><g id="ap"><use transform="matrix(0.06172839506172839,0,0,0.06172839506172839,0,0)" xlink:href="#bC"/><use transform="matrix(0.06172839506172839,0,0,0.06172839506172839,11.11111111111111,0)" xlink:href="#cA"/><use transform="matrix(0.06172839506172839,0,0,0.06172839506172839,23.45679012345679,0)" xlink:href="#bT"/><use transform="matrix(0.06172839506172839,0,0,0.06172839506172839,35.80246913580247,0)" xlink:href="#bA"/><use transform="matrix(0.06172839506172839,0,0,0.06172839506172839,43.148148148148145,0)" xlink:href="#bB"/></g><path fill="#333" d="M175 0L67-191c6 58 2 128 3 191H24v-248h59L193-55c-6-58-2-129-3-193h46V0h-61" id="cB"/><g id="aq"><use transform="matrix(0.04938271604938272,0,0,0.04938271604938272,0,0)" xlink:href="#cB"/><use transform="matrix(0.04938271604938272,0,0,0.04938271604938272,12.790123456790125,0)" xlink:href="#cp"/></g><g id="ar"><use transform="matrix(0.06172839506172839,0,0,0.06172839506172839,0,0)" xlink:href="#ce"/><use transform="matrix(0.06172839506172839,0,0,0.06172839506172839,14.814814814814813,0)" xlink:href="#aL"/><use transform="matrix(0.06172839506172839,0,0,0.06172839506172839,22.160493827160494,0)" xlink:href="#aK"/><use transform="matrix(0.06172839506172839,0,0,0.06172839506172839,34.50617283950617,0)" xlink:href="#aG"/><use transform="matrix(0.06172839506172839,0,0,0.06172839506172839,43.148148148148145,0)" xlink:href="#aL"/></g></defs></g></svg>